<?xml version="1.0" encoding="UTF-8" standalone="no"?>
<!DOCTYPE svg PUBLIC "-//W3C//DTD SVG 1.1//EN"
 "http://www.w3.org/Graphics/SVG/1.1/DTD/svg11.dtd">
<!-- Generated by graphviz version 2.44.0 (20200408.0750)
 -->
<!-- Pages: 1 -->
<svg width="846pt" height="260pt"
 viewBox="0.00 0.00 846.00 260.00" xmlns="http://www.w3.org/2000/svg" xmlns:xlink="http://www.w3.org/1999/xlink">
<g id="graph0" class="graph" transform="scale(1 1) rotate(0) translate(4 256)">
<polygon fill="white" stroke="transparent" points="-4,4 -4,-256 842,-256 842,4 -4,4"/>
<!-- _sa11y_assert -->
<g id="node1" class="node">
<title>_sa11y_assert</title>
<ellipse fill="none" stroke="#000000" cx="602.4" cy="-162" rx="67.25" ry="18"/>
<text text-anchor="middle" x="602.4" y="-157.8" font-family="Times,serif" font-size="14.00">@sa11y/assert</text>
</g>
<!-- _sa11y_common -->
<g id="node2" class="node">
<title>_sa11y_common</title>
<ellipse fill="none" stroke="#00007f" cx="239.4" cy="-90" rx="78.87" ry="18"/>
<text text-anchor="middle" x="239.4" y="-85.8" font-family="Times,serif" font-size="14.00">@sa11y/common</text>
</g>
<!-- _sa11y_assert&#45;&gt;_sa11y_common -->
<g id="edge1" class="edge">
<title>_sa11y_assert&#45;&gt;_sa11y_common</title>
<path fill="none" stroke="#00007f" d="M549.68,-150.85C494.32,-140.18 404.74,-122.92 327.4,-108 320.93,-106.75 314.2,-105.45 307.46,-104.15"/>
<polygon fill="#00007f" stroke="#00007f" points="308.1,-100.71 297.62,-102.25 306.78,-107.58 308.1,-100.71"/>
</g>
<!-- _sa11y_format -->
<g id="node3" class="node">
<title>_sa11y_format</title>
<ellipse fill="none" stroke="#0000ff" cx="605.4" cy="-90" rx="70.76" ry="18"/>
<text text-anchor="middle" x="605.4" y="-85.8" font-family="Times,serif" font-size="14.00">@sa11y/format</text>
</g>
<!-- _sa11y_assert&#45;&gt;_sa11y_format -->
<g id="edge2" class="edge">
<title>_sa11y_assert&#45;&gt;_sa11y_format</title>
<path fill="none" stroke="#0000ff" d="M603.14,-143.7C603.47,-135.98 603.87,-126.71 604.24,-118.11"/>
<polygon fill="#0000ff" stroke="#0000ff" points="607.74,-118.25 604.67,-108.1 600.74,-117.95 607.74,-118.25"/>
</g>
<!-- _sa11y_preset_rules -->
<g id="node4" class="node">
<title>_sa11y_preset_rules</title>
<ellipse fill="none" stroke="#007f00" cx="426.4" cy="-90" rx="90.36" ry="18"/>
<text text-anchor="middle" x="426.4" y="-85.8" font-family="Times,serif" font-size="14.00">@sa11y/preset&#45;rules</text>
</g>
<!-- _sa11y_assert&#45;&gt;_sa11y_preset_rules -->
<g id="edge3" class="edge">
<title>_sa11y_assert&#45;&gt;_sa11y_preset_rules</title>
<path fill="none" stroke="#007f00" d="M566.36,-146.67C539.8,-136.1 503.39,-121.62 474.37,-110.08"/>
<polygon fill="#007f00" stroke="#007f00" points="475.42,-106.73 464.83,-106.29 472.83,-113.23 475.42,-106.73"/>
</g>
<!-- axe_core -->
<g id="node5" class="node">
<title>axe_core</title>
<ellipse fill="none" stroke="#007f7f" cx="426.4" cy="-18" rx="44.04" ry="18"/>
<text text-anchor="middle" x="426.4" y="-13.8" font-family="Times,serif" font-size="14.00">axe&#45;core</text>
</g>
<!-- _sa11y_assert&#45;&gt;axe_core -->
<g id="edge4" class="edge">
<title>_sa11y_assert&#45;&gt;axe_core</title>
<path fill="none" stroke="#007f7f" d="M639.87,-147.04C657,-138.55 675.62,-125.84 685.4,-108 693.09,-93.97 695.52,-84.4 685.4,-72 660.01,-40.88 548.28,-27.54 480.14,-22.21"/>
<polygon fill="#007f7f" stroke="#007f7f" points="480.24,-18.71 470,-21.46 479.71,-25.69 480.24,-18.71"/>
</g>
<!-- _sa11y_common&#45;&gt;axe_core -->
<g id="edge5" class="edge">
<title>_sa11y_common&#45;&gt;axe_core</title>
<path fill="none" stroke="#007f7f" d="M278.6,-74.33C309.95,-62.59 353.76,-46.19 385.54,-34.29"/>
<polygon fill="#007f7f" stroke="#007f7f" points="386.85,-37.54 394.99,-30.76 384.4,-30.99 386.85,-37.54"/>
</g>
<!-- _sa11y_format&#45;&gt;axe_core -->
<g id="edge6" class="edge">
<title>_sa11y_format&#45;&gt;axe_core</title>
<path fill="none" stroke="#007f7f" d="M568.31,-74.5C538.65,-62.9 497.13,-46.66 466.66,-34.75"/>
<polygon fill="#007f7f" stroke="#007f7f" points="467.78,-31.42 457.19,-31.04 465.23,-37.94 467.78,-31.42"/>
</g>
<!-- _sa11y_preset_rules&#45;&gt;axe_core -->
<g id="edge11" class="edge">
<title>_sa11y_preset_rules&#45;&gt;axe_core</title>
<path fill="none" stroke="#007f7f" d="M426.4,-71.7C426.4,-63.98 426.4,-54.71 426.4,-46.11"/>
<polygon fill="#007f7f" stroke="#007f7f" points="429.9,-46.1 426.4,-36.1 422.9,-46.1 429.9,-46.1"/>
</g>
<!-- _sa11y_jest -->
<g id="node6" class="node">
<title>_sa11y_jest</title>
<ellipse fill="none" stroke="#007fff" cx="554.4" cy="-234" rx="58.6" ry="18"/>
<text text-anchor="middle" x="554.4" y="-229.8" font-family="Times,serif" font-size="14.00">@sa11y/jest</text>
</g>
<!-- _sa11y_jest&#45;&gt;_sa11y_assert -->
<g id="edge7" class="edge">
<title>_sa11y_jest&#45;&gt;_sa11y_assert</title>
<path fill="none" stroke="#000000" d="M566.02,-216.05C571.74,-207.71 578.75,-197.49 585.09,-188.25"/>
<polygon fill="#000000" stroke="#000000" points="588.12,-190.02 590.89,-179.79 582.35,-186.06 588.12,-190.02"/>
</g>
<!-- _sa11y_jest&#45;&gt;_sa11y_format -->
<g id="edge8" class="edge">
<title>_sa11y_jest&#45;&gt;_sa11y_format</title>
<path fill="none" stroke="#0000ff" d="M594.95,-221.01C627.27,-210.54 668.66,-194.75 678.4,-180 687.21,-166.65 685.67,-158.25 678.4,-144 671.52,-130.51 659.43,-119.65 647.04,-111.36"/>
<polygon fill="#0000ff" stroke="#0000ff" points="648.81,-108.34 638.47,-106.02 645.11,-114.28 648.81,-108.34"/>
</g>
<!-- _sa11y_jest&#45;&gt;_sa11y_preset_rules -->
<g id="edge9" class="edge">
<title>_sa11y_jest&#45;&gt;_sa11y_preset_rules</title>
<path fill="none" stroke="#007f00" d="M543.52,-216.05C531.21,-197.47 510.05,-167.21 488.4,-144 478.55,-133.44 466.7,-122.88 456.02,-114"/>
<polygon fill="#007f00" stroke="#007f00" points="458.09,-111.17 448.13,-107.56 453.66,-116.59 458.09,-111.17"/>
</g>
<!-- jest_matcher_utils -->
<g id="node7" class="node">
<title>jest_matcher_utils</title>
<ellipse fill="none" stroke="#00ff00" cx="400.4" cy="-162" rx="78.72" ry="18"/>
<text text-anchor="middle" x="400.4" y="-157.8" font-family="Times,serif" font-size="14.00">jest&#45;matcher&#45;utils</text>
</g>
<!-- _sa11y_jest&#45;&gt;jest_matcher_utils -->
<g id="edge10" class="edge">
<title>_sa11y_jest&#45;&gt;jest_matcher_utils</title>
<path fill="none" stroke="#00ff00" d="M522.86,-218.67C499.92,-208.24 468.6,-194 443.37,-182.53"/>
<polygon fill="#00ff00" stroke="#00ff00" points="444.58,-179.24 434.03,-178.29 441.68,-185.61 444.58,-179.24"/>
</g>
<!-- _sa11y_test_utils -->
<g id="node8" class="node">
<title>_sa11y_test_utils</title>
<ellipse fill="none" stroke="#00ffff" cx="78.4" cy="-162" rx="78.3" ry="18"/>
<text text-anchor="middle" x="78.4" y="-157.8" font-family="Times,serif" font-size="14.00">@sa11y/test&#45;utils</text>
</g>
<!-- _sa11y_test_utils&#45;&gt;_sa11y_common -->
<g id="edge12" class="edge">
<title>_sa11y_test_utils&#45;&gt;_sa11y_common</title>
<path fill="none" stroke="#00007f" d="M113.34,-145.81C137.39,-135.35 169.53,-121.38 195.34,-110.16"/>
<polygon fill="#00007f" stroke="#00007f" points="196.76,-113.36 204.53,-106.16 193.97,-106.94 196.76,-113.36"/>
</g>
<!-- _sa11y_wdio -->
<g id="node9" class="node">
<title>_sa11y_wdio</title>
<ellipse fill="none" stroke="#7f0000" cx="239.4" cy="-162" rx="64.41" ry="18"/>
<text text-anchor="middle" x="239.4" y="-157.8" font-family="Times,serif" font-size="14.00">@sa11y/wdio</text>
</g>
<!-- _sa11y_wdio&#45;&gt;_sa11y_common -->
<g id="edge13" class="edge">
<title>_sa11y_wdio&#45;&gt;_sa11y_common</title>
<path fill="none" stroke="#00007f" d="M239.4,-143.7C239.4,-135.98 239.4,-126.71 239.4,-118.11"/>
<polygon fill="#00007f" stroke="#00007f" points="242.9,-118.1 239.4,-108.1 235.9,-118.1 242.9,-118.1"/>
</g>
<!-- _sa11y_wdio&#45;&gt;_sa11y_format -->
<g id="edge14" class="edge">
<title>_sa11y_wdio&#45;&gt;_sa11y_format</title>
<path fill="none" stroke="#0000ff" d="M286.43,-149.6C295.05,-147.64 303.98,-145.69 312.4,-144 406.53,-125.1 431.09,-125.98 525.4,-108 531.21,-106.89 537.24,-105.7 543.28,-104.47"/>
<polygon fill="#0000ff" stroke="#0000ff" points="544.31,-107.83 553.39,-102.38 542.89,-100.97 544.31,-107.83"/>
</g>
<!-- _sa11y_wdio&#45;&gt;_sa11y_preset_rules -->
<g id="edge15" class="edge">
<title>_sa11y_wdio&#45;&gt;_sa11y_preset_rules</title>
<path fill="none" stroke="#007f00" d="M276.35,-147.17C304.99,-136.45 344.99,-121.47 376.49,-109.68"/>
<polygon fill="#007f00" stroke="#007f00" points="377.83,-112.92 385.97,-106.14 375.37,-106.36 377.83,-112.92"/>
</g>
<!-- _sa11y_wdio&#45;&gt;axe_core -->
<g id="edge16" class="edge">
<title>_sa11y_wdio&#45;&gt;axe_core</title>
<path fill="none" stroke="#007f7f" d="M199.74,-147.58C181.59,-139.23 161.84,-126.48 151.4,-108 143.53,-94.07 141.21,-84.34 151.4,-72 178.88,-38.72 300.48,-26.11 372.46,-21.51"/>
<polygon fill="#007f7f" stroke="#007f7f" points="372.93,-24.98 382.7,-20.88 372.51,-18 372.93,-24.98"/>
</g>
<!-- _sa11y_test_integration -->
<g id="node10" class="node">
<title>_sa11y_test_integration</title>
<ellipse fill="none" stroke="#00ff7f" cx="734.4" cy="-234" rx="103.7" ry="18"/>
<text text-anchor="middle" x="734.4" y="-229.8" font-family="Times,serif" font-size="14.00">@sa11y/test&#45;integration</text>
</g>
</g>
</svg>
