<?xml version="1.0" encoding="UTF-8" standalone="no"?>
<!DOCTYPE svg PUBLIC "-//W3C//DTD SVG 1.1//EN"
 "http://www.w3.org/Graphics/SVG/1.1/DTD/svg11.dtd">
<!-- Generated by graphviz version 2.44.0 (20200408.0750)
 -->
<!-- Pages: 1 -->
<svg width="1078pt" height="260pt"
 viewBox="0.00 0.00 1078.05 260.00" xmlns="http://www.w3.org/2000/svg" xmlns:xlink="http://www.w3.org/1999/xlink">
<g id="graph0" class="graph" transform="scale(1 1) rotate(0) translate(4 256)">
<polygon fill="white" stroke="transparent" points="-4,4 -4,-256 1074.05,-256 1074.05,4 -4,4"/>
<!-- _sa11y_assert -->
<g id="node1" class="node">
<title>_sa11y_assert</title>
<ellipse fill="none" stroke="#000000" cx="601.4" cy="-162" rx="67.25" ry="18"/>
<text text-anchor="middle" x="601.4" y="-157.8" font-family="Times,serif" font-size="14.00">@sa11y/assert</text>
</g>
<!-- _sa11y_common -->
<g id="node2" class="node">
<title>_sa11y_common</title>
<ellipse fill="none" stroke="#00007f" cx="294.4" cy="-90" rx="78.87" ry="18"/>
<text text-anchor="middle" x="294.4" y="-85.8" font-family="Times,serif" font-size="14.00">@sa11y/common</text>
</g>
<!-- _sa11y_assert&#45;&gt;_sa11y_common -->
<g id="edge1" class="edge">
<title>_sa11y_assert&#45;&gt;_sa11y_common</title>
<path fill="none" stroke="#00007f" d="M552.08,-149.75C499.39,-137.74 415.7,-118.66 358.08,-105.52"/>
<polygon fill="#00007f" stroke="#00007f" points="358.52,-102.03 347.99,-103.22 356.96,-108.85 358.52,-102.03"/>
</g>
<!-- _sa11y_format -->
<g id="node3" class="node">
<title>_sa11y_format</title>
<ellipse fill="none" stroke="#0000ff" cx="736.4" cy="-90" rx="70.76" ry="18"/>
<text text-anchor="middle" x="736.4" y="-85.8" font-family="Times,serif" font-size="14.00">@sa11y/format</text>
</g>
<!-- _sa11y_assert&#45;&gt;_sa11y_format -->
<g id="edge2" class="edge">
<title>_sa11y_assert&#45;&gt;_sa11y_format</title>
<path fill="none" stroke="#0000ff" d="M631.03,-145.64C650.5,-135.54 676.19,-122.22 697.33,-111.26"/>
<polygon fill="#0000ff" stroke="#0000ff" points="699.11,-114.28 706.38,-106.57 695.89,-108.06 699.11,-114.28"/>
</g>
<!-- _sa11y_preset_rules -->
<g id="node4" class="node">
<title>_sa11y_preset_rules</title>
<ellipse fill="none" stroke="#007f00" cx="519.4" cy="-90" rx="90.36" ry="18"/>
<text text-anchor="middle" x="519.4" y="-85.8" font-family="Times,serif" font-size="14.00">@sa11y/preset&#45;rules</text>
</g>
<!-- _sa11y_assert&#45;&gt;_sa11y_preset_rules -->
<g id="edge3" class="edge">
<title>_sa11y_assert&#45;&gt;_sa11y_preset_rules</title>
<path fill="none" stroke="#007f00" d="M581.97,-144.41C571.42,-135.41 558.22,-124.14 546.66,-114.27"/>
<polygon fill="#007f00" stroke="#007f00" points="548.86,-111.54 538.98,-107.71 544.31,-116.87 548.86,-111.54"/>
</g>
<!-- axe_core -->
<g id="node5" class="node">
<title>axe_core</title>
<ellipse fill="none" stroke="#007f7f" cx="578.4" cy="-18" rx="44.04" ry="18"/>
<text text-anchor="middle" x="578.4" y="-13.8" font-family="Times,serif" font-size="14.00">axe&#45;core</text>
</g>
<!-- _sa11y_assert&#45;&gt;axe_core -->
<g id="edge4" class="edge">
<title>_sa11y_assert&#45;&gt;axe_core</title>
<path fill="none" stroke="#007f7f" d="M609.73,-143.92C617.43,-125.75 626.55,-96.31 618.4,-72 614.85,-61.4 608.25,-51.22 601.41,-42.67"/>
<polygon fill="#007f7f" stroke="#007f7f" points="604.03,-40.35 594.89,-35.01 598.71,-44.89 604.03,-40.35"/>
</g>
<!-- _sa11y_common&#45;&gt;axe_core -->
<g id="edge8" class="edge">
<title>_sa11y_common&#45;&gt;axe_core</title>
<path fill="none" stroke="#007f7f" d="M345.83,-76.32C398.73,-63.29 480.41,-43.15 531.56,-30.54"/>
<polygon fill="#007f7f" stroke="#007f7f" points="532.5,-33.92 541.37,-28.13 530.82,-27.12 532.5,-33.92"/>
</g>
<!-- _sa11y_format&#45;&gt;axe_core -->
<g id="edge9" class="edge">
<title>_sa11y_format&#45;&gt;axe_core</title>
<path fill="none" stroke="#007f7f" d="M702.51,-73.98C677.23,-62.78 642.69,-47.48 616.46,-35.86"/>
<polygon fill="#007f7f" stroke="#007f7f" points="617.77,-32.61 607.21,-31.76 614.93,-39.01 617.77,-32.61"/>
</g>
<!-- _sa11y_preset_rules&#45;&gt;axe_core -->
<g id="edge15" class="edge">
<title>_sa11y_preset_rules&#45;&gt;axe_core</title>
<path fill="none" stroke="#007f7f" d="M533.68,-72.05C541.04,-63.33 550.13,-52.54 558.19,-42.98"/>
<polygon fill="#007f7f" stroke="#007f7f" points="560.89,-45.21 564.66,-35.31 555.54,-40.7 560.89,-45.21"/>
</g>
<!-- _sa11y_browser_lib -->
<g id="node6" class="node">
<title>_sa11y_browser_lib</title>
<ellipse fill="none" stroke="#007fff" cx="980.4" cy="-162" rx="89.8" ry="18"/>
<text text-anchor="middle" x="980.4" y="-157.8" font-family="Times,serif" font-size="14.00">@sa11y/browser&#45;lib</text>
</g>
<!-- _sa11y_browser_lib&#45;&gt;_sa11y_format -->
<g id="edge5" class="edge">
<title>_sa11y_browser_lib&#45;&gt;_sa11y_format</title>
<path fill="none" stroke="#0000ff" d="M931.32,-146.92C890.86,-135.31 833.51,-118.86 791.49,-106.81"/>
<polygon fill="#0000ff" stroke="#0000ff" points="792.28,-103.39 781.7,-104 790.35,-110.12 792.28,-103.39"/>
</g>
<!-- _sa11y_browser_lib&#45;&gt;_sa11y_preset_rules -->
<g id="edge6" class="edge">
<title>_sa11y_browser_lib&#45;&gt;_sa11y_preset_rules</title>
<path fill="none" stroke="#007f00" d="M915.2,-149.57C903.94,-147.66 892.34,-145.74 881.4,-144 785.39,-128.73 674.79,-112.78 601.36,-102.41"/>
<polygon fill="#007f00" stroke="#007f00" points="601.65,-98.92 591.26,-100.99 600.67,-105.85 601.65,-98.92"/>
</g>
<!-- _sa11y_browser_lib&#45;&gt;axe_core -->
<g id="edge7" class="edge">
<title>_sa11y_browser_lib&#45;&gt;axe_core</title>
<path fill="none" stroke="#007f7f" d="M955.6,-144.68C924.35,-124.8 868.43,-91.48 816.4,-72 754.22,-48.73 678.89,-34.08 629.87,-26.22"/>
<polygon fill="#007f7f" stroke="#007f7f" points="630.25,-22.73 619.82,-24.64 629.16,-29.65 630.25,-22.73"/>
</g>
<!-- _sa11y_jest -->
<g id="node7" class="node">
<title>_sa11y_jest</title>
<ellipse fill="none" stroke="#00ff00" cx="601.4" cy="-234" rx="58.6" ry="18"/>
<text text-anchor="middle" x="601.4" y="-229.8" font-family="Times,serif" font-size="14.00">@sa11y/jest</text>
</g>
<!-- _sa11y_jest&#45;&gt;_sa11y_assert -->
<g id="edge11" class="edge">
<title>_sa11y_jest&#45;&gt;_sa11y_assert</title>
<path fill="none" stroke="#000000" d="M601.4,-215.7C601.4,-207.98 601.4,-198.71 601.4,-190.11"/>
<polygon fill="#000000" stroke="#000000" points="604.9,-190.1 601.4,-180.1 597.9,-190.1 604.9,-190.1"/>
</g>
<!-- _sa11y_jest&#45;&gt;_sa11y_format -->
<g id="edge12" class="edge">
<title>_sa11y_jest&#45;&gt;_sa11y_format</title>
<path fill="none" stroke="#0000ff" d="M628.25,-217.77C643.72,-208.19 662.9,-194.84 677.4,-180 695.8,-161.17 711.94,-135.84 722.67,-117.02"/>
<polygon fill="#0000ff" stroke="#0000ff" points="725.82,-118.54 727.62,-108.1 719.71,-115.14 725.82,-118.54"/>
</g>
<!-- _sa11y_jest&#45;&gt;_sa11y_preset_rules -->
<g id="edge13" class="edge">
<title>_sa11y_jest&#45;&gt;_sa11y_preset_rules</title>
<path fill="none" stroke="#007f00" d="M569.06,-218.89C553.06,-210.13 535.14,-197.22 525.4,-180 514.89,-161.41 513.96,-137.01 515.34,-118.47"/>
<polygon fill="#007f00" stroke="#007f00" points="518.85,-118.61 516.37,-108.31 511.88,-117.91 518.85,-118.61"/>
</g>
<!-- _jest_test_result -->
<g id="node8" class="node">
<title>_jest_test_result</title>
<ellipse fill="none" stroke="#00ff7f" cx="798.4" cy="-162" rx="74.2" ry="18"/>
<text text-anchor="middle" x="798.4" y="-157.8" font-family="Times,serif" font-size="14.00">@jest/test&#45;result</text>
</g>
<!-- _sa11y_jest&#45;&gt;_jest_test_result -->
<g id="edge10" class="edge">
<title>_sa11y_jest&#45;&gt;_jest_test_result</title>
<path fill="none" stroke="#00ff7f" d="M638.45,-219.83C669.6,-208.77 714.39,-192.85 748.65,-180.68"/>
<polygon fill="#00ff7f" stroke="#00ff7f" points="750.22,-183.84 758.47,-177.19 747.87,-177.24 750.22,-183.84"/>
</g>
<!-- jest_matcher_utils -->
<g id="node9" class="node">
<title>jest_matcher_utils</title>
<ellipse fill="none" stroke="#00ffff" cx="253.4" cy="-162" rx="78.72" ry="18"/>
<text text-anchor="middle" x="253.4" y="-157.8" font-family="Times,serif" font-size="14.00">jest&#45;matcher&#45;utils</text>
</g>
<!-- _sa11y_jest&#45;&gt;jest_matcher_utils -->
<g id="edge14" class="edge">
<title>_sa11y_jest&#45;&gt;jest_matcher_utils</title>
<path fill="none" stroke="#00ffff" d="M553.74,-223.41C493.24,-211.24 388.52,-190.18 320.11,-176.42"/>
<polygon fill="#00ffff" stroke="#00ffff" points="320.78,-172.98 310.29,-174.44 319.4,-179.85 320.78,-172.98"/>
</g>
<!-- _sa11y_test_utils -->
<g id="node10" class="node">
<title>_sa11y_test_utils</title>
<ellipse fill="none" stroke="#7f007f" cx="78.4" cy="-162" rx="78.3" ry="18"/>
<text text-anchor="middle" x="78.4" y="-157.8" font-family="Times,serif" font-size="14.00">@sa11y/test&#45;utils</text>
</g>
<!-- _sa11y_test_utils&#45;&gt;_sa11y_common -->
<g id="edge16" class="edge">
<title>_sa11y_test_utils&#45;&gt;_sa11y_common</title>
<path fill="none" stroke="#00007f" d="M121.85,-146.92C156.34,-135.74 204.71,-120.07 241.46,-108.16"/>
<polygon fill="#00007f" stroke="#00007f" points="242.59,-111.47 251.02,-105.06 240.43,-104.81 242.59,-111.47"/>
</g>
<!-- _sa11y_wdio -->
<g id="node11" class="node">
<title>_sa11y_wdio</title>
<ellipse fill="none" stroke="#7f00ff" cx="414.4" cy="-162" rx="64.41" ry="18"/>
<text text-anchor="middle" x="414.4" y="-157.8" font-family="Times,serif" font-size="14.00">@sa11y/wdio</text>
</g>
<!-- _sa11y_wdio&#45;&gt;_sa11y_common -->
<g id="edge17" class="edge">
<title>_sa11y_wdio&#45;&gt;_sa11y_common</title>
<path fill="none" stroke="#00007f" d="M387.77,-145.46C370.92,-135.63 348.91,-122.8 330.5,-112.06"/>
<polygon fill="#00007f" stroke="#00007f" points="332.19,-108.99 321.79,-106.98 328.66,-115.04 332.19,-108.99"/>
</g>
<!-- _sa11y_wdio&#45;&gt;_sa11y_format -->
<g id="edge18" class="edge">
<title>_sa11y_wdio&#45;&gt;_sa11y_format</title>
<path fill="none" stroke="#0000ff" d="M463.66,-150.29C520.23,-137.99 613.13,-117.8 674.53,-104.45"/>
<polygon fill="#0000ff" stroke="#0000ff" points="675.45,-107.83 684.48,-102.29 673.97,-100.99 675.45,-107.83"/>
</g>
<!-- _sa11y_wdio&#45;&gt;_sa11y_preset_rules -->
<g id="edge19" class="edge">
<title>_sa11y_wdio&#45;&gt;_sa11y_preset_rules</title>
<path fill="none" stroke="#007f00" d="M438.23,-145.12C452.42,-135.65 470.64,-123.5 486.23,-113.11"/>
<polygon fill="#007f00" stroke="#007f00" points="488.19,-116.01 494.57,-107.55 484.31,-110.19 488.19,-116.01"/>
</g>
<!-- _sa11y_wdio&#45;&gt;axe_core -->
<g id="edge20" class="edge">
<title>_sa11y_wdio&#45;&gt;axe_core</title>
<path fill="none" stroke="#007f7f" d="M410.41,-143.98C406.89,-124.49 404.51,-92.6 420.4,-72 444.85,-40.31 489.02,-27.39 524.45,-22.21"/>
<polygon fill="#007f7f" stroke="#007f7f" points="525.19,-25.65 534.66,-20.9 524.3,-18.71 525.19,-25.65"/>
</g>
<!-- _sa11y_test_integration -->
<g id="node12" class="node">
<title>_sa11y_test_integration</title>
<ellipse fill="none" stroke="#7f0000" cx="781.4" cy="-234" rx="103.7" ry="18"/>
<text text-anchor="middle" x="781.4" y="-229.8" font-family="Times,serif" font-size="14.00">@sa11y/test&#45;integration</text>
</g>
</g>
</svg>
