<?xml version="1.0" encoding="UTF-8" standalone="no"?>
<!DOCTYPE svg PUBLIC "-//W3C//DTD SVG 1.1//EN"
 "http://www.w3.org/Graphics/SVG/1.1/DTD/svg11.dtd">
<!-- Generated by graphviz version 2.44.0 (20200408.0750)
 -->
<!-- Pages: 1 -->
<svg width="1079pt" height="260pt"
 viewBox="0.00 0.00 1079.01 260.00" xmlns="http://www.w3.org/2000/svg" xmlns:xlink="http://www.w3.org/1999/xlink">
<g id="graph0" class="graph" transform="scale(1 1) rotate(0) translate(4 256)">
<polygon fill="white" stroke="transparent" points="-4,4 -4,-256 1075.01,-256 1075.01,4 -4,4"/>
<!-- _sa11y_assert -->
<g id="node1" class="node">
<title>_sa11y_assert</title>
<ellipse fill="none" stroke="#000000" cx="242.4" cy="-162" rx="67.25" ry="18"/>
<text text-anchor="middle" x="242.4" y="-157.8" font-family="Times,serif" font-size="14.00">@sa11y/assert</text>
</g>
<!-- _sa11y_common -->
<g id="node2" class="node">
<title>_sa11y_common</title>
<ellipse fill="none" stroke="#00007f" cx="133.4" cy="-90" rx="78.87" ry="18"/>
<text text-anchor="middle" x="133.4" y="-85.8" font-family="Times,serif" font-size="14.00">@sa11y/common</text>
</g>
<!-- _sa11y_assert&#45;&gt;_sa11y_common -->
<g id="edge1" class="edge">
<title>_sa11y_assert&#45;&gt;_sa11y_common</title>
<path fill="none" stroke="#00007f" d="M217.67,-145.12C202.83,-135.59 183.74,-123.33 167.49,-112.89"/>
<polygon fill="#00007f" stroke="#00007f" points="169.1,-109.77 158.79,-107.31 165.32,-115.66 169.1,-109.77"/>
</g>
<!-- _sa11y_format -->
<g id="node3" class="node">
<title>_sa11y_format</title>
<ellipse fill="none" stroke="#0000ff" cx="339.4" cy="-90" rx="70.76" ry="18"/>
<text text-anchor="middle" x="339.4" y="-85.8" font-family="Times,serif" font-size="14.00">@sa11y/format</text>
</g>
<!-- _sa11y_assert&#45;&gt;_sa11y_format -->
<g id="edge2" class="edge">
<title>_sa11y_assert&#45;&gt;_sa11y_format</title>
<path fill="none" stroke="#0000ff" d="M264.9,-144.76C277.88,-135.4 294.38,-123.49 308.55,-113.26"/>
<polygon fill="#0000ff" stroke="#0000ff" points="310.96,-115.84 317.02,-107.15 306.87,-110.16 310.96,-115.84"/>
</g>
<!-- _sa11y_preset_rules -->
<g id="node4" class="node">
<title>_sa11y_preset_rules</title>
<ellipse fill="none" stroke="#007f00" cx="556.4" cy="-90" rx="90.36" ry="18"/>
<text text-anchor="middle" x="556.4" y="-85.8" font-family="Times,serif" font-size="14.00">@sa11y/preset&#45;rules</text>
</g>
<!-- _sa11y_assert&#45;&gt;_sa11y_preset_rules -->
<g id="edge3" class="edge">
<title>_sa11y_assert&#45;&gt;_sa11y_preset_rules</title>
<path fill="none" stroke="#007f00" d="M292.15,-149.91C345.2,-138.08 429.54,-119.28 488.63,-106.11"/>
<polygon fill="#007f00" stroke="#007f00" points="489.62,-109.47 498.62,-103.88 488.1,-102.64 489.62,-109.47"/>
</g>
<!-- axe_core -->
<g id="node5" class="node">
<title>axe_core</title>
<ellipse fill="none" stroke="#007f7f" cx="388.4" cy="-18" rx="44.04" ry="18"/>
<text text-anchor="middle" x="388.4" y="-13.8" font-family="Times,serif" font-size="14.00">axe&#45;core</text>
</g>
<!-- _sa11y_assert&#45;&gt;axe_core -->
<g id="edge4" class="edge">
<title>_sa11y_assert&#45;&gt;axe_core</title>
<path fill="none" stroke="#007f7f" d="M241.12,-143.94C240.59,-124.4 242.68,-92.47 259.4,-72 278.84,-48.2 310.71,-34.97 337.91,-27.68"/>
<polygon fill="#007f7f" stroke="#007f7f" points="338.82,-31.06 347.68,-25.26 337.14,-24.27 338.82,-31.06"/>
</g>
<!-- _sa11y_common&#45;&gt;axe_core -->
<g id="edge8" class="edge">
<title>_sa11y_common&#45;&gt;axe_core</title>
<path fill="none" stroke="#007f7f" d="M181.66,-75.75C227.98,-63.04 297.39,-43.98 342.8,-31.52"/>
<polygon fill="#007f7f" stroke="#007f7f" points="343.95,-34.83 352.66,-28.81 342.09,-28.08 343.95,-34.83"/>
</g>
<!-- webdriverio -->
<g id="node7" class="node">
<title>webdriverio</title>
<ellipse fill="none" stroke="#00ff00" cx="133.4" cy="-18" rx="57.88" ry="18"/>
<text text-anchor="middle" x="133.4" y="-13.8" font-family="Times,serif" font-size="14.00">webdriverio</text>
</g>
<!-- _sa11y_common&#45;&gt;webdriverio -->
<g id="edge9" class="edge">
<title>_sa11y_common&#45;&gt;webdriverio</title>
<path fill="none" stroke="#00ff00" d="M133.4,-71.7C133.4,-63.98 133.4,-54.71 133.4,-46.11"/>
<polygon fill="#00ff00" stroke="#00ff00" points="136.9,-46.1 133.4,-36.1 129.9,-46.1 136.9,-46.1"/>
</g>
<!-- _sa11y_format&#45;&gt;axe_core -->
<g id="edge10" class="edge">
<title>_sa11y_format&#45;&gt;axe_core</title>
<path fill="none" stroke="#007f7f" d="M351.26,-72.05C357.1,-63.71 364.26,-53.49 370.72,-44.25"/>
<polygon fill="#007f7f" stroke="#007f7f" points="373.78,-45.99 376.65,-35.79 368.05,-41.97 373.78,-45.99"/>
</g>
<!-- _sa11y_preset_rules&#45;&gt;axe_core -->
<g id="edge16" class="edge">
<title>_sa11y_preset_rules&#45;&gt;axe_core</title>
<path fill="none" stroke="#007f7f" d="M519.12,-73.46C491.96,-62.15 455.26,-46.86 427.66,-35.36"/>
<polygon fill="#007f7f" stroke="#007f7f" points="428.89,-32.08 418.31,-31.46 426.19,-38.54 428.89,-32.08"/>
</g>
<!-- _sa11y_browser_lib -->
<g id="node6" class="node">
<title>_sa11y_browser_lib</title>
<ellipse fill="none" stroke="#007fff" cx="601.4" cy="-162" rx="89.8" ry="18"/>
<text text-anchor="middle" x="601.4" y="-157.8" font-family="Times,serif" font-size="14.00">@sa11y/browser&#45;lib</text>
</g>
<!-- _sa11y_browser_lib&#45;&gt;_sa11y_format -->
<g id="edge5" class="edge">
<title>_sa11y_browser_lib&#45;&gt;_sa11y_format</title>
<path fill="none" stroke="#0000ff" d="M549.95,-147.25C505.66,-135.42 441.85,-118.37 396.1,-106.15"/>
<polygon fill="#0000ff" stroke="#0000ff" points="396.9,-102.74 386.33,-103.54 395.09,-109.5 396.9,-102.74"/>
</g>
<!-- _sa11y_browser_lib&#45;&gt;_sa11y_preset_rules -->
<g id="edge6" class="edge">
<title>_sa11y_browser_lib&#45;&gt;_sa11y_preset_rules</title>
<path fill="none" stroke="#007f00" d="M590.51,-144.05C585.28,-135.92 578.9,-126 573.08,-116.94"/>
<polygon fill="#007f00" stroke="#007f00" points="575.86,-114.79 567.51,-108.28 569.97,-118.58 575.86,-114.79"/>
</g>
<!-- _sa11y_browser_lib&#45;&gt;axe_core -->
<g id="edge7" class="edge">
<title>_sa11y_browser_lib&#45;&gt;axe_core</title>
<path fill="none" stroke="#007f7f" d="M623.79,-144.33C646.08,-125.73 674.44,-95.19 655.4,-72 628.96,-39.8 512.27,-26.81 442.2,-21.85"/>
<polygon fill="#007f7f" stroke="#007f7f" points="442.43,-18.36 432.22,-21.17 441.96,-25.34 442.43,-18.36"/>
</g>
<!-- _sa11y_jest -->
<g id="node8" class="node">
<title>_sa11y_jest</title>
<ellipse fill="none" stroke="#00ff7f" cx="719.4" cy="-234" rx="58.6" ry="18"/>
<text text-anchor="middle" x="719.4" y="-229.8" font-family="Times,serif" font-size="14.00">@sa11y/jest</text>
</g>
<!-- _sa11y_jest&#45;&gt;_sa11y_assert -->
<g id="edge12" class="edge">
<title>_sa11y_jest&#45;&gt;_sa11y_assert</title>
<path fill="none" stroke="#000000" d="M665.08,-227.02C588.6,-218.3 444.92,-200.85 323.4,-180 316.64,-178.84 309.59,-177.52 302.59,-176.15"/>
<polygon fill="#000000" stroke="#000000" points="302.91,-172.64 292.41,-174.1 301.53,-179.5 302.91,-172.64"/>
</g>
<!-- _sa11y_jest&#45;&gt;_sa11y_format -->
<g id="edge13" class="edge">
<title>_sa11y_jest&#45;&gt;_sa11y_format</title>
<path fill="none" stroke="#0000ff" d="M660.94,-232.43C569.58,-230.27 398.96,-220.74 356.4,-180 340.02,-164.33 336.7,-138.1 336.92,-118.16"/>
<polygon fill="#0000ff" stroke="#0000ff" points="340.42,-118.26 337.33,-108.12 333.42,-117.97 340.42,-118.26"/>
</g>
<!-- _sa11y_jest&#45;&gt;_sa11y_preset_rules -->
<g id="edge14" class="edge">
<title>_sa11y_jest&#45;&gt;_sa11y_preset_rules</title>
<path fill="none" stroke="#007f00" d="M720.37,-215.79C720.54,-196.12 717.79,-164.06 700.4,-144 683.68,-124.72 659.31,-112.44 635.36,-104.63"/>
<polygon fill="#007f00" stroke="#007f00" points="636.08,-101.2 625.5,-101.65 634.06,-107.9 636.08,-101.2"/>
</g>
<!-- _jest_test_result -->
<g id="node9" class="node">
<title>_jest_test_result</title>
<ellipse fill="none" stroke="#00ffff" cx="821.4" cy="-162" rx="74.2" ry="18"/>
<text text-anchor="middle" x="821.4" y="-157.8" font-family="Times,serif" font-size="14.00">@jest/test&#45;result</text>
</g>
<!-- _sa11y_jest&#45;&gt;_jest_test_result -->
<g id="edge11" class="edge">
<title>_sa11y_jest&#45;&gt;_jest_test_result</title>
<path fill="none" stroke="#00ffff" d="M742.29,-217.29C756.14,-207.79 774,-195.53 789.25,-185.06"/>
<polygon fill="#00ffff" stroke="#00ffff" points="791.61,-187.69 797.88,-179.14 787.65,-181.92 791.61,-187.69"/>
</g>
<!-- jest_matcher_utils -->
<g id="node10" class="node">
<title>jest_matcher_utils</title>
<ellipse fill="none" stroke="#7f0000" cx="992.4" cy="-162" rx="78.72" ry="18"/>
<text text-anchor="middle" x="992.4" y="-157.8" font-family="Times,serif" font-size="14.00">jest&#45;matcher&#45;utils</text>
</g>
<!-- _sa11y_jest&#45;&gt;jest_matcher_utils -->
<g id="edge15" class="edge">
<title>_sa11y_jest&#45;&gt;jest_matcher_utils</title>
<path fill="none" stroke="#7f0000" d="M762.96,-221.83C808.69,-210.11 880.91,-191.59 932.1,-178.46"/>
<polygon fill="#7f0000" stroke="#7f0000" points="933.22,-181.79 942.04,-175.91 931.49,-175.01 933.22,-181.79"/>
</g>
<!-- _sa11y_test_utils -->
<g id="node11" class="node">
<title>_sa11y_test_utils</title>
<ellipse fill="none" stroke="#7f00ff" cx="78.4" cy="-162" rx="78.3" ry="18"/>
<text text-anchor="middle" x="78.4" y="-157.8" font-family="Times,serif" font-size="14.00">@sa11y/test&#45;utils</text>
</g>
<!-- _sa11y_test_utils&#45;&gt;_sa11y_common -->
<g id="edge17" class="edge">
<title>_sa11y_test_utils&#45;&gt;_sa11y_common</title>
<path fill="none" stroke="#00007f" d="M91.71,-144.05C98.4,-135.54 106.63,-125.07 114.01,-115.68"/>
<polygon fill="#00007f" stroke="#00007f" points="116.78,-117.81 120.21,-107.79 111.28,-113.49 116.78,-117.81"/>
</g>
<!-- _sa11y_wdio -->
<g id="node12" class="node">
<title>_sa11y_wdio</title>
<ellipse fill="none" stroke="#7f7f00" cx="429.4" cy="-162" rx="64.41" ry="18"/>
<text text-anchor="middle" x="429.4" y="-157.8" font-family="Times,serif" font-size="14.00">@sa11y/wdio</text>
</g>
<!-- _sa11y_wdio&#45;&gt;_sa11y_common -->
<g id="edge18" class="edge">
<title>_sa11y_wdio&#45;&gt;_sa11y_common</title>
<path fill="none" stroke="#00007f" d="M381.84,-149.75C331.46,-137.84 251.67,-118.97 196.15,-105.84"/>
<polygon fill="#00007f" stroke="#00007f" points="196.62,-102.35 186.08,-103.46 195.01,-109.17 196.62,-102.35"/>
</g>
<!-- _sa11y_wdio&#45;&gt;_sa11y_format -->
<g id="edge19" class="edge">
<title>_sa11y_wdio&#45;&gt;_sa11y_format</title>
<path fill="none" stroke="#0000ff" d="M408.53,-144.76C396.68,-135.55 381.68,-123.88 368.68,-113.77"/>
<polygon fill="#0000ff" stroke="#0000ff" points="370.52,-110.77 360.47,-107.39 366.22,-116.29 370.52,-110.77"/>
</g>
<!-- _sa11y_wdio&#45;&gt;_sa11y_preset_rules -->
<g id="edge20" class="edge">
<title>_sa11y_wdio&#45;&gt;_sa11y_preset_rules</title>
<path fill="none" stroke="#007f00" d="M457.27,-145.64C475.17,-135.77 498.66,-122.83 518.28,-112.01"/>
<polygon fill="#007f00" stroke="#007f00" points="520.2,-114.95 527.27,-107.06 516.82,-108.82 520.2,-114.95"/>
</g>
<!-- _sa11y_wdio&#45;&gt;axe_core -->
<g id="edge21" class="edge">
<title>_sa11y_wdio&#45;&gt;axe_core</title>
<path fill="none" stroke="#007f7f" d="M429.56,-143.82C429.26,-125.56 427.39,-96.05 419.4,-72 416.24,-62.49 411.22,-52.82 406.14,-44.39"/>
<polygon fill="#007f7f" stroke="#007f7f" points="408.99,-42.35 400.68,-35.79 403.08,-46.11 408.99,-42.35"/>
</g>
<!-- _sa11y_test_integration -->
<g id="node13" class="node">
<title>_sa11y_test_integration</title>
<ellipse fill="none" stroke="#7f007f" cx="899.4" cy="-234" rx="103.7" ry="18"/>
<text text-anchor="middle" x="899.4" y="-229.8" font-family="Times,serif" font-size="14.00">@sa11y/test&#45;integration</text>
</g>
</g>
</svg>
