<?xml version="1.0" encoding="UTF-8" standalone="no"?>
<!DOCTYPE svg PUBLIC "-//W3C//DTD SVG 1.1//EN"
 "http://www.w3.org/Graphics/SVG/1.1/DTD/svg11.dtd">
<!-- Generated by graphviz version 2.44.0 (20200408.0750)
 -->
<!-- Pages: 1 -->
<svg width="895pt" height="260pt"
 viewBox="0.00 0.00 894.57 260.00" xmlns="http://www.w3.org/2000/svg" xmlns:xlink="http://www.w3.org/1999/xlink">
<g id="graph0" class="graph" transform="scale(1 1) rotate(0) translate(4 256)">
<polygon fill="white" stroke="transparent" points="-4,4 -4,-256 890.57,-256 890.57,4 -4,4"/>
<!-- _sa11y_assert -->
<g id="node1" class="node">
<title>_sa11y_assert</title>
<ellipse fill="none" stroke="#000000" cx="602.4" cy="-162" rx="67.25" ry="18"/>
<text text-anchor="middle" x="602.4" y="-157.8" font-family="Times,serif" font-size="14.00">@sa11y/assert</text>
</g>
<!-- _sa11y_common -->
<g id="node2" class="node">
<title>_sa11y_common</title>
<ellipse fill="none" stroke="#00007f" cx="285.4" cy="-90" rx="78.87" ry="18"/>
<text text-anchor="middle" x="285.4" y="-85.8" font-family="Times,serif" font-size="14.00">@sa11y/common</text>
</g>
<!-- _sa11y_assert&#45;&gt;_sa11y_common -->
<g id="edge1" class="edge">
<title>_sa11y_assert&#45;&gt;_sa11y_common</title>
<path fill="none" stroke="#00007f" d="M552.53,-149.82C543.82,-147.87 534.85,-145.87 526.4,-144 466.85,-130.79 399,-115.88 350.5,-105.25"/>
<polygon fill="#00007f" stroke="#00007f" points="350.97,-101.77 340.45,-103.05 349.47,-108.61 350.97,-101.77"/>
</g>
<!-- _sa11y_format -->
<g id="node3" class="node">
<title>_sa11y_format</title>
<ellipse fill="none" stroke="#0000ff" cx="689.4" cy="-90" rx="70.76" ry="18"/>
<text text-anchor="middle" x="689.4" y="-85.8" font-family="Times,serif" font-size="14.00">@sa11y/format</text>
</g>
<!-- _sa11y_assert&#45;&gt;_sa11y_format -->
<g id="edge2" class="edge">
<title>_sa11y_assert&#45;&gt;_sa11y_format</title>
<path fill="none" stroke="#0000ff" d="M622.58,-144.76C634.03,-135.55 648.53,-123.88 661.1,-113.77"/>
<polygon fill="#0000ff" stroke="#0000ff" points="663.43,-116.39 669.03,-107.39 659.05,-110.93 663.43,-116.39"/>
</g>
<!-- _sa11y_preset_rules -->
<g id="node4" class="node">
<title>_sa11y_preset_rules</title>
<ellipse fill="none" stroke="#007f00" cx="472.4" cy="-90" rx="90.36" ry="18"/>
<text text-anchor="middle" x="472.4" y="-85.8" font-family="Times,serif" font-size="14.00">@sa11y/preset&#45;rules</text>
</g>
<!-- _sa11y_assert&#45;&gt;_sa11y_preset_rules -->
<g id="edge3" class="edge">
<title>_sa11y_assert&#45;&gt;_sa11y_preset_rules</title>
<path fill="none" stroke="#007f00" d="M573.87,-145.64C555.46,-135.73 531.29,-122.71 511.15,-111.87"/>
<polygon fill="#007f00" stroke="#007f00" points="512.68,-108.71 502.22,-107.06 509.36,-114.88 512.68,-108.71"/>
</g>
<!-- axe_core -->
<g id="node5" class="node">
<title>axe_core</title>
<ellipse fill="none" stroke="#007f7f" cx="531.4" cy="-18" rx="44.04" ry="18"/>
<text text-anchor="middle" x="531.4" y="-13.8" font-family="Times,serif" font-size="14.00">axe&#45;core</text>
</g>
<!-- _sa11y_assert&#45;&gt;axe_core -->
<g id="edge4" class="edge">
<title>_sa11y_assert&#45;&gt;axe_core</title>
<path fill="none" stroke="#007f7f" d="M598.17,-143.95C593.21,-125.54 584.05,-95.67 571.4,-72 566.05,-61.98 558.89,-51.83 552.11,-43.12"/>
<polygon fill="#007f7f" stroke="#007f7f" points="554.79,-40.87 545.8,-35.27 549.34,-45.26 554.79,-40.87"/>
</g>
<!-- _sa11y_common&#45;&gt;axe_core -->
<g id="edge8" class="edge">
<title>_sa11y_common&#45;&gt;axe_core</title>
<path fill="none" stroke="#007f7f" d="M332.83,-75.5C377.13,-62.9 442.78,-44.22 486.31,-31.83"/>
<polygon fill="#007f7f" stroke="#007f7f" points="487.4,-35.16 496.06,-29.06 485.48,-28.43 487.4,-35.16"/>
</g>
<!-- _sa11y_format&#45;&gt;axe_core -->
<g id="edge9" class="edge">
<title>_sa11y_format&#45;&gt;axe_core</title>
<path fill="none" stroke="#007f7f" d="M655.51,-73.98C630.23,-62.78 595.69,-47.48 569.46,-35.86"/>
<polygon fill="#007f7f" stroke="#007f7f" points="570.77,-32.61 560.21,-31.76 567.93,-39.01 570.77,-32.61"/>
</g>
<!-- _sa11y_preset_rules&#45;&gt;axe_core -->
<g id="edge14" class="edge">
<title>_sa11y_preset_rules&#45;&gt;axe_core</title>
<path fill="none" stroke="#007f7f" d="M486.68,-72.05C494.04,-63.33 503.13,-52.54 511.19,-42.98"/>
<polygon fill="#007f7f" stroke="#007f7f" points="513.89,-45.21 517.66,-35.31 508.54,-40.7 513.89,-45.21"/>
</g>
<!-- _sa11y_browser_lib -->
<g id="node6" class="node">
<title>_sa11y_browser_lib</title>
<ellipse fill="none" stroke="#007fff" cx="777.4" cy="-162" rx="89.8" ry="18"/>
<text text-anchor="middle" x="777.4" y="-157.8" font-family="Times,serif" font-size="14.00">@sa11y/browser&#45;lib</text>
</g>
<!-- _sa11y_browser_lib&#45;&gt;_sa11y_format -->
<g id="edge5" class="edge">
<title>_sa11y_browser_lib&#45;&gt;_sa11y_format</title>
<path fill="none" stroke="#0000ff" d="M756.55,-144.41C745.04,-135.26 730.58,-123.76 718.03,-113.77"/>
<polygon fill="#0000ff" stroke="#0000ff" points="720.11,-110.96 710.11,-107.47 715.75,-116.43 720.11,-110.96"/>
</g>
<!-- _sa11y_browser_lib&#45;&gt;_sa11y_preset_rules -->
<g id="edge6" class="edge">
<title>_sa11y_browser_lib&#45;&gt;_sa11y_preset_rules</title>
<path fill="none" stroke="#007f00" d="M720.75,-148C669.34,-136.2 593.49,-118.79 539.15,-106.32"/>
<polygon fill="#007f00" stroke="#007f00" points="539.8,-102.88 529.27,-104.05 538.23,-109.7 539.8,-102.88"/>
</g>
<!-- _sa11y_browser_lib&#45;&gt;axe_core -->
<g id="edge7" class="edge">
<title>_sa11y_browser_lib&#45;&gt;axe_core</title>
<path fill="none" stroke="#007f7f" d="M781.25,-143.98C784.65,-124.18 786.7,-91.7 769.4,-72 745.49,-44.77 647.1,-30.26 584.55,-23.63"/>
<polygon fill="#007f7f" stroke="#007f7f" points="584.76,-20.13 574.46,-22.59 584.05,-27.1 584.76,-20.13"/>
</g>
<!-- _sa11y_jest -->
<g id="node7" class="node">
<title>_sa11y_jest</title>
<ellipse fill="none" stroke="#00ff00" cx="520.4" cy="-234" rx="58.6" ry="18"/>
<text text-anchor="middle" x="520.4" y="-229.8" font-family="Times,serif" font-size="14.00">@sa11y/jest</text>
</g>
<!-- _sa11y_jest&#45;&gt;_sa11y_assert -->
<g id="edge10" class="edge">
<title>_sa11y_jest&#45;&gt;_sa11y_assert</title>
<path fill="none" stroke="#000000" d="M539.42,-216.76C550.11,-207.64 563.62,-196.1 575.39,-186.06"/>
<polygon fill="#000000" stroke="#000000" points="577.87,-188.54 583.2,-179.39 573.32,-183.22 577.87,-188.54"/>
</g>
<!-- _sa11y_jest&#45;&gt;_sa11y_format -->
<g id="edge11" class="edge">
<title>_sa11y_jest&#45;&gt;_sa11y_format</title>
<path fill="none" stroke="#0000ff" d="M562.76,-221.41C570.89,-219.42 579.38,-217.51 587.4,-216 651,-204.02 833.56,-228.51 876.4,-180 915,-136.29 829.65,-112.25 761.9,-100.49"/>
<polygon fill="#0000ff" stroke="#0000ff" points="762.06,-96.97 751.62,-98.78 760.91,-103.87 762.06,-96.97"/>
</g>
<!-- _sa11y_jest&#45;&gt;_sa11y_preset_rules -->
<g id="edge12" class="edge">
<title>_sa11y_jest&#45;&gt;_sa11y_preset_rules</title>
<path fill="none" stroke="#007f00" d="M462.29,-231.6C423.8,-227.26 375.87,-214.61 350.4,-180 340.92,-167.11 341.63,-157.38 350.4,-144 361.99,-126.33 380.89,-114.52 400.39,-106.63"/>
<polygon fill="#007f00" stroke="#007f00" points="401.82,-109.84 409.98,-103.07 399.38,-103.27 401.82,-109.84"/>
</g>
<!-- jest_matcher_utils -->
<g id="node8" class="node">
<title>jest_matcher_utils</title>
<ellipse fill="none" stroke="#00ff7f" cx="438.4" cy="-162" rx="78.72" ry="18"/>
<text text-anchor="middle" x="438.4" y="-157.8" font-family="Times,serif" font-size="14.00">jest&#45;matcher&#45;utils</text>
</g>
<!-- _sa11y_jest&#45;&gt;jest_matcher_utils -->
<g id="edge13" class="edge">
<title>_sa11y_jest&#45;&gt;jest_matcher_utils</title>
<path fill="none" stroke="#00ff7f" d="M501.38,-216.76C490.77,-207.71 477.37,-196.27 465.67,-186.28"/>
<polygon fill="#00ff7f" stroke="#00ff7f" points="467.76,-183.46 457.89,-179.63 463.22,-188.79 467.76,-183.46"/>
</g>
<!-- _sa11y_test_utils -->
<g id="node9" class="node">
<title>_sa11y_test_utils</title>
<ellipse fill="none" stroke="#7f0000" cx="78.4" cy="-162" rx="78.3" ry="18"/>
<text text-anchor="middle" x="78.4" y="-157.8" font-family="Times,serif" font-size="14.00">@sa11y/test&#45;utils</text>
</g>
<!-- _sa11y_test_utils&#45;&gt;_sa11y_common -->
<g id="edge15" class="edge">
<title>_sa11y_test_utils&#45;&gt;_sa11y_common</title>
<path fill="none" stroke="#00007f" d="M120.54,-146.75C153.28,-135.68 198.84,-120.27 233.77,-108.46"/>
<polygon fill="#00007f" stroke="#00007f" points="234.97,-111.75 243.32,-105.23 232.73,-105.12 234.97,-111.75"/>
</g>
<!-- _sa11y_wdio -->
<g id="node10" class="node">
<title>_sa11y_wdio</title>
<ellipse fill="none" stroke="#7f007f" cx="239.4" cy="-162" rx="64.41" ry="18"/>
<text text-anchor="middle" x="239.4" y="-157.8" font-family="Times,serif" font-size="14.00">@sa11y/wdio</text>
</g>
<!-- _sa11y_wdio&#45;&gt;_sa11y_common -->
<g id="edge16" class="edge">
<title>_sa11y_wdio&#45;&gt;_sa11y_common</title>
<path fill="none" stroke="#00007f" d="M250.54,-144.05C255.94,-135.84 262.54,-125.79 268.54,-116.66"/>
<polygon fill="#00007f" stroke="#00007f" points="271.48,-118.55 274.05,-108.28 265.63,-114.71 271.48,-118.55"/>
</g>
<!-- _sa11y_wdio&#45;&gt;_sa11y_format -->
<g id="edge17" class="edge">
<title>_sa11y_wdio&#45;&gt;_sa11y_format</title>
<path fill="none" stroke="#0000ff" d="M294.13,-152.49C376.11,-139.73 530.73,-115.68 620.36,-101.74"/>
<polygon fill="#0000ff" stroke="#0000ff" points="621.08,-105.17 630.42,-100.17 620,-98.25 621.08,-105.17"/>
</g>
<!-- _sa11y_wdio&#45;&gt;_sa11y_preset_rules -->
<g id="edge18" class="edge">
<title>_sa11y_wdio&#45;&gt;_sa11y_preset_rules</title>
<path fill="none" stroke="#007f00" d="M281.59,-148.32C318.87,-137.13 373.55,-120.7 414.84,-108.29"/>
<polygon fill="#007f00" stroke="#007f00" points="415.92,-111.62 424.49,-105.39 413.91,-104.92 415.92,-111.62"/>
</g>
<!-- _sa11y_wdio&#45;&gt;axe_core -->
<g id="edge19" class="edge">
<title>_sa11y_wdio&#45;&gt;axe_core</title>
<path fill="none" stroke="#007f7f" d="M221.32,-144.42C202.67,-125.34 178.76,-93.83 197.4,-72 232.71,-30.65 391.77,-21.39 477.02,-19.43"/>
<polygon fill="#007f7f" stroke="#007f7f" points="477.11,-22.93 487.04,-19.23 476.97,-15.93 477.11,-22.93"/>
</g>
<!-- _sa11y_test_integration -->
<g id="node11" class="node">
<title>_sa11y_test_integration</title>
<ellipse fill="none" stroke="#00ffff" cx="700.4" cy="-234" rx="103.7" ry="18"/>
<text text-anchor="middle" x="700.4" y="-229.8" font-family="Times,serif" font-size="14.00">@sa11y/test&#45;integration</text>
</g>
</g>
</svg>
