<?xml version="1.0" encoding="UTF-8" standalone="no"?>
<!DOCTYPE svg PUBLIC "-//W3C//DTD SVG 1.1//EN"
 "http://www.w3.org/Graphics/SVG/1.1/DTD/svg11.dtd">
<!-- Generated by graphviz version 2.44.0 (20200408.0750)
 -->
<!-- Pages: 1 -->
<svg width="1065pt" height="260pt"
 viewBox="0.00 0.00 1064.51 260.00" xmlns="http://www.w3.org/2000/svg" xmlns:xlink="http://www.w3.org/1999/xlink">
<g id="graph0" class="graph" transform="scale(1 1) rotate(0) translate(4 256)">
<polygon fill="white" stroke="transparent" points="-4,4 -4,-256 1060.51,-256 1060.51,4 -4,4"/>
<!-- _sa11y_assert -->
<g id="node1" class="node">
<title>_sa11y_assert</title>
<ellipse fill="none" stroke="#000000" cx="584.4" cy="-162" rx="67.25" ry="18"/>
<text text-anchor="middle" x="584.4" y="-157.8" font-family="Times,serif" font-size="14.00">@sa11y/assert</text>
</g>
<!-- _sa11y_common -->
<g id="node2" class="node">
<title>_sa11y_common</title>
<ellipse fill="none" stroke="#00007f" cx="506.4" cy="-90" rx="78.87" ry="18"/>
<text text-anchor="middle" x="506.4" y="-85.8" font-family="Times,serif" font-size="14.00">@sa11y/common</text>
</g>
<!-- _sa11y_assert&#45;&gt;_sa11y_common -->
<g id="edge1" class="edge">
<title>_sa11y_assert&#45;&gt;_sa11y_common</title>
<path fill="none" stroke="#00007f" d="M565.92,-144.41C555.98,-135.5 543.57,-124.36 532.65,-114.56"/>
<polygon fill="#00007f" stroke="#00007f" points="534.8,-111.79 525.02,-107.71 530.13,-117 534.8,-111.79"/>
</g>
<!-- _sa11y_format -->
<g id="node3" class="node">
<title>_sa11y_format</title>
<ellipse fill="none" stroke="#0000ff" cx="788.4" cy="-90" rx="70.76" ry="18"/>
<text text-anchor="middle" x="788.4" y="-85.8" font-family="Times,serif" font-size="14.00">@sa11y/format</text>
</g>
<!-- _sa11y_assert&#45;&gt;_sa11y_format -->
<g id="edge2" class="edge">
<title>_sa11y_assert&#45;&gt;_sa11y_format</title>
<path fill="none" stroke="#0000ff" d="M624.22,-147.34C656.86,-136.14 703.25,-120.22 738.39,-108.16"/>
<polygon fill="#0000ff" stroke="#0000ff" points="739.66,-111.42 747.99,-104.87 737.39,-104.8 739.66,-111.42"/>
</g>
<!-- _sa11y_preset_rules -->
<g id="node4" class="node">
<title>_sa11y_preset_rules</title>
<ellipse fill="none" stroke="#007f00" cx="887.4" cy="-18" rx="90.36" ry="18"/>
<text text-anchor="middle" x="887.4" y="-13.8" font-family="Times,serif" font-size="14.00">@sa11y/preset&#45;rules</text>
</g>
<!-- _sa11y_assert&#45;&gt;_sa11y_preset_rules -->
<g id="edge3" class="edge">
<title>_sa11y_assert&#45;&gt;_sa11y_preset_rules</title>
<path fill="none" stroke="#007f00" d="M602.87,-144.67C626.05,-124.94 667.7,-91.92 708.4,-72 742.71,-55.21 783.37,-42.64 817.26,-33.97"/>
<polygon fill="#007f00" stroke="#007f00" points="818.23,-37.34 827.09,-31.52 816.54,-30.54 818.23,-37.34"/>
</g>
<!-- axe_core -->
<g id="node5" class="node">
<title>axe_core</title>
<ellipse fill="none" stroke="#007f7f" cx="689.4" cy="-18" rx="44.04" ry="18"/>
<text text-anchor="middle" x="689.4" y="-13.8" font-family="Times,serif" font-size="14.00">axe&#45;core</text>
</g>
<!-- _sa11y_assert&#45;&gt;axe_core -->
<g id="edge4" class="edge">
<title>_sa11y_assert&#45;&gt;axe_core</title>
<path fill="none" stroke="#007f7f" d="M593.04,-143.83C602.71,-125.32 619.4,-95.36 637.4,-72 645.51,-61.47 655.53,-50.82 664.6,-41.86"/>
<polygon fill="#007f7f" stroke="#007f7f" points="667.17,-44.24 671.93,-34.77 662.31,-39.21 667.17,-44.24"/>
</g>
<!-- _sa11y_common&#45;&gt;axe_core -->
<g id="edge8" class="edge">
<title>_sa11y_common&#45;&gt;axe_core</title>
<path fill="none" stroke="#007f7f" d="M545.21,-74.15C575.6,-62.53 617.75,-46.41 648.63,-34.59"/>
<polygon fill="#007f7f" stroke="#007f7f" points="650.14,-37.76 658.23,-30.92 647.64,-31.23 650.14,-37.76"/>
</g>
<!-- _sa11y_format&#45;&gt;_sa11y_preset_rules -->
<g id="edge9" class="edge">
<title>_sa11y_format&#45;&gt;_sa11y_preset_rules</title>
<path fill="none" stroke="#007f00" d="M811.36,-72.76C824.54,-63.45 841.28,-51.61 855.7,-41.41"/>
<polygon fill="#007f00" stroke="#007f00" points="857.73,-44.26 863.88,-35.63 853.69,-38.55 857.73,-44.26"/>
</g>
<!-- _sa11y_format&#45;&gt;axe_core -->
<g id="edge10" class="edge">
<title>_sa11y_format&#45;&gt;axe_core</title>
<path fill="none" stroke="#007f7f" d="M765.44,-72.76C751.59,-62.97 733.81,-50.4 718.93,-39.88"/>
<polygon fill="#007f7f" stroke="#007f7f" points="720.73,-36.87 710.55,-33.95 716.69,-42.58 720.73,-36.87"/>
</g>
<!-- _sa11y_browser_lib -->
<g id="node6" class="node">
<title>_sa11y_browser_lib</title>
<ellipse fill="none" stroke="#007fff" cx="944.4" cy="-162" rx="89.8" ry="18"/>
<text text-anchor="middle" x="944.4" y="-157.8" font-family="Times,serif" font-size="14.00">@sa11y/browser&#45;lib</text>
</g>
<!-- _sa11y_browser_lib&#45;&gt;_sa11y_format -->
<g id="edge5" class="edge">
<title>_sa11y_browser_lib&#45;&gt;_sa11y_format</title>
<path fill="none" stroke="#0000ff" d="M909.39,-145.29C886.23,-134.9 855.73,-121.21 831.14,-110.18"/>
<polygon fill="#0000ff" stroke="#0000ff" points="832.25,-106.84 821.69,-105.94 829.38,-113.22 832.25,-106.84"/>
</g>
<!-- _sa11y_browser_lib&#45;&gt;_sa11y_preset_rules -->
<g id="edge6" class="edge">
<title>_sa11y_browser_lib&#45;&gt;_sa11y_preset_rules</title>
<path fill="none" stroke="#007f00" d="M946.9,-143.77C948.82,-125.21 949.66,-95.22 939.4,-72 934.49,-60.87 926.13,-50.75 917.54,-42.4"/>
<polygon fill="#007f00" stroke="#007f00" points="919.75,-39.68 910,-35.54 915.04,-44.86 919.75,-39.68"/>
</g>
<!-- _sa11y_browser_lib&#45;&gt;axe_core -->
<g id="edge7" class="edge">
<title>_sa11y_browser_lib&#45;&gt;axe_core</title>
<path fill="none" stroke="#007f7f" d="M934.24,-143.99C921.38,-123.89 897.37,-90.81 868.4,-72 829.77,-46.91 778.85,-33.34 741.2,-26.24"/>
<polygon fill="#007f7f" stroke="#007f7f" points="741.42,-22.72 730.96,-24.4 740.18,-29.61 741.42,-22.72"/>
</g>
<!-- _sa11y_jest -->
<g id="node7" class="node">
<title>_sa11y_jest</title>
<ellipse fill="none" stroke="#00ff00" cx="584.4" cy="-234" rx="58.6" ry="18"/>
<text text-anchor="middle" x="584.4" y="-229.8" font-family="Times,serif" font-size="14.00">@sa11y/jest</text>
</g>
<!-- _sa11y_jest&#45;&gt;_sa11y_assert -->
<g id="edge12" class="edge">
<title>_sa11y_jest&#45;&gt;_sa11y_assert</title>
<path fill="none" stroke="#000000" d="M584.4,-215.7C584.4,-207.98 584.4,-198.71 584.4,-190.11"/>
<polygon fill="#000000" stroke="#000000" points="587.9,-190.1 584.4,-180.1 580.9,-190.1 587.9,-190.1"/>
</g>
<!-- _sa11y_jest&#45;&gt;_sa11y_format -->
<g id="edge13" class="edge">
<title>_sa11y_jest&#45;&gt;_sa11y_format</title>
<path fill="none" stroke="#0000ff" d="M627.98,-221.8C635.77,-219.84 643.82,-217.84 651.4,-216 720.56,-199.25 763.1,-235.68 807.4,-180 821.6,-162.15 813.74,-136.13 804.19,-116.83"/>
<polygon fill="#0000ff" stroke="#0000ff" points="807.25,-115.13 799.45,-107.96 801.07,-118.43 807.25,-115.13"/>
</g>
<!-- _sa11y_jest&#45;&gt;_sa11y_preset_rules -->
<g id="edge14" class="edge">
<title>_sa11y_jest&#45;&gt;_sa11y_preset_rules</title>
<path fill="none" stroke="#007f00" d="M626.36,-221.28C634.61,-219.28 643.24,-217.4 651.4,-216 694.51,-208.6 1013.92,-212.31 1043.4,-180 1090.81,-128.04 993.54,-69.21 932.23,-39.1"/>
<polygon fill="#007f00" stroke="#007f00" points="933.63,-35.88 923.1,-34.69 930.59,-42.19 933.63,-35.88"/>
</g>
<!-- _jest_test_result -->
<g id="node8" class="node">
<title>_jest_test_result</title>
<ellipse fill="none" stroke="#00ff7f" cx="249.4" cy="-162" rx="74.2" ry="18"/>
<text text-anchor="middle" x="249.4" y="-157.8" font-family="Times,serif" font-size="14.00">@jest/test&#45;result</text>
</g>
<!-- _sa11y_jest&#45;&gt;_jest_test_result -->
<g id="edge11" class="edge">
<title>_sa11y_jest&#45;&gt;_jest_test_result</title>
<path fill="none" stroke="#00ff7f" d="M537.47,-223.19C478.98,-210.97 378.76,-190.03 313.3,-176.35"/>
<polygon fill="#00ff7f" stroke="#00ff7f" points="314.01,-172.92 303.5,-174.3 312.57,-179.78 314.01,-172.92"/>
</g>
<!-- jest_matcher_utils -->
<g id="node9" class="node">
<title>jest_matcher_utils</title>
<ellipse fill="none" stroke="#00ffff" cx="420.4" cy="-162" rx="78.72" ry="18"/>
<text text-anchor="middle" x="420.4" y="-157.8" font-family="Times,serif" font-size="14.00">jest&#45;matcher&#45;utils</text>
</g>
<!-- _sa11y_jest&#45;&gt;jest_matcher_utils -->
<g id="edge15" class="edge">
<title>_sa11y_jest&#45;&gt;jest_matcher_utils</title>
<path fill="none" stroke="#00ffff" d="M551.61,-219C526.86,-208.44 492.61,-193.82 465.32,-182.17"/>
<polygon fill="#00ffff" stroke="#00ffff" points="466.55,-178.89 455.98,-178.19 463.8,-185.33 466.55,-178.89"/>
</g>
<!-- _sa11y_test_utils -->
<g id="node10" class="node">
<title>_sa11y_test_utils</title>
<ellipse fill="none" stroke="#7f007f" cx="78.4" cy="-162" rx="78.3" ry="18"/>
<text text-anchor="middle" x="78.4" y="-157.8" font-family="Times,serif" font-size="14.00">@sa11y/test&#45;utils</text>
</g>
<!-- _sa11y_test_utils&#45;&gt;_sa11y_common -->
<g id="edge16" class="edge">
<title>_sa11y_test_utils&#45;&gt;_sa11y_common</title>
<path fill="none" stroke="#00007f" d="M135.62,-149.63C145.86,-147.69 156.44,-145.74 166.4,-144 257.55,-128.1 362.86,-112.04 431.83,-101.83"/>
<polygon fill="#00007f" stroke="#00007f" points="432.36,-105.29 441.74,-100.37 431.33,-98.37 432.36,-105.29"/>
</g>
<!-- _sa11y_wdio -->
<g id="node11" class="node">
<title>_sa11y_wdio</title>
<ellipse fill="none" stroke="#7f00ff" cx="734.4" cy="-162" rx="64.41" ry="18"/>
<text text-anchor="middle" x="734.4" y="-157.8" font-family="Times,serif" font-size="14.00">@sa11y/wdio</text>
</g>
<!-- _sa11y_wdio&#45;&gt;_sa11y_common -->
<g id="edge17" class="edge">
<title>_sa11y_wdio&#45;&gt;_sa11y_common</title>
<path fill="none" stroke="#00007f" d="M692.58,-148.16C655.65,-136.82 601.54,-120.21 561.16,-107.81"/>
<polygon fill="#00007f" stroke="#00007f" points="562.05,-104.43 551.47,-104.84 560,-111.12 562.05,-104.43"/>
</g>
<!-- _sa11y_wdio&#45;&gt;_sa11y_format -->
<g id="edge18" class="edge">
<title>_sa11y_wdio&#45;&gt;_sa11y_format</title>
<path fill="none" stroke="#0000ff" d="M747.47,-144.05C753.97,-135.63 761.96,-125.28 769.14,-115.97"/>
<polygon fill="#0000ff" stroke="#0000ff" points="772.11,-117.84 775.45,-107.79 766.57,-113.57 772.11,-117.84"/>
</g>
<!-- _sa11y_wdio&#45;&gt;_sa11y_preset_rules -->
<g id="edge19" class="edge">
<title>_sa11y_wdio&#45;&gt;_sa11y_preset_rules</title>
<path fill="none" stroke="#007f00" d="M788.56,-152.15C816.3,-144.86 848.36,-131.68 868.4,-108 882.87,-90.9 887.14,-65.45 888.07,-46.14"/>
<polygon fill="#007f00" stroke="#007f00" points="891.57,-46.21 888.29,-36.14 884.57,-46.06 891.57,-46.21"/>
</g>
<!-- _sa11y_wdio&#45;&gt;axe_core -->
<g id="edge20" class="edge">
<title>_sa11y_wdio&#45;&gt;axe_core</title>
<path fill="none" stroke="#007f7f" d="M724.62,-143.8C719.19,-133.65 712.69,-120.4 708.4,-108 701.39,-87.75 696.48,-63.98 693.4,-46.1"/>
<polygon fill="#007f7f" stroke="#007f7f" points="696.83,-45.37 691.77,-36.07 689.92,-46.5 696.83,-45.37"/>
</g>
<!-- _sa11y_test_integration -->
<g id="node12" class="node">
<title>_sa11y_test_integration</title>
<ellipse fill="none" stroke="#7f0000" cx="764.4" cy="-234" rx="103.7" ry="18"/>
<text text-anchor="middle" x="764.4" y="-229.8" font-family="Times,serif" font-size="14.00">@sa11y/test&#45;integration</text>
</g>
</g>
</svg>
