<?xml version="1.0" encoding="UTF-8" standalone="no"?>
<!DOCTYPE svg PUBLIC "-//W3C//DTD SVG 1.1//EN"
 "http://www.w3.org/Graphics/SVG/1.1/DTD/svg11.dtd">
<!-- Generated by graphviz version 2.44.0 (20200408.0750)
 -->
<!-- Pages: 1 -->
<svg width="1080pt" height="260pt"
 viewBox="0.00 0.00 1079.50 260.00" xmlns="http://www.w3.org/2000/svg" xmlns:xlink="http://www.w3.org/1999/xlink">
<g id="graph0" class="graph" transform="scale(1 1) rotate(0) translate(4 256)">
<polygon fill="white" stroke="transparent" points="-4,4 -4,-256 1075.5,-256 1075.5,4 -4,4"/>
<!-- _sa11y_assert -->
<g id="node1" class="node">
<title>_sa11y_assert</title>
<ellipse fill="none" stroke="#000000" cx="829.1" cy="-162" rx="67.25" ry="18"/>
<text text-anchor="middle" x="829.1" y="-157.8" font-family="Times,serif" font-size="14.00">@sa11y/assert</text>
</g>
<!-- _sa11y_common -->
<g id="node2" class="node">
<title>_sa11y_common</title>
<ellipse fill="none" stroke="#00007f" cx="857.1" cy="-90" rx="78.87" ry="18"/>
<text text-anchor="middle" x="857.1" y="-85.8" font-family="Times,serif" font-size="14.00">@sa11y/common</text>
</g>
<!-- _sa11y_assert&#45;&gt;_sa11y_common -->
<g id="edge1" class="edge">
<title>_sa11y_assert&#45;&gt;_sa11y_common</title>
<path fill="none" stroke="#00007f" d="M835.88,-144.05C839.03,-136.18 842.85,-126.62 846.38,-117.79"/>
<polygon fill="#00007f" stroke="#00007f" points="849.73,-118.86 850.19,-108.28 843.23,-116.26 849.73,-118.86"/>
</g>
<!-- _sa11y_format -->
<g id="node3" class="node">
<title>_sa11y_format</title>
<ellipse fill="none" stroke="#0000ff" cx="651.1" cy="-90" rx="70.76" ry="18"/>
<text text-anchor="middle" x="651.1" y="-85.8" font-family="Times,serif" font-size="14.00">@sa11y/format</text>
</g>
<!-- _sa11y_assert&#45;&gt;_sa11y_format -->
<g id="edge2" class="edge">
<title>_sa11y_assert&#45;&gt;_sa11y_format</title>
<path fill="none" stroke="#0000ff" d="M792.65,-146.67C765.02,-135.8 726.88,-120.8 697.14,-109.11"/>
<polygon fill="#0000ff" stroke="#0000ff" points="698.39,-105.84 687.81,-105.44 695.83,-112.35 698.39,-105.84"/>
</g>
<!-- _sa11y_preset_rules -->
<g id="node4" class="node">
<title>_sa11y_preset_rules</title>
<ellipse fill="none" stroke="#007f00" cx="472.1" cy="-90" rx="90.36" ry="18"/>
<text text-anchor="middle" x="472.1" y="-85.8" font-family="Times,serif" font-size="14.00">@sa11y/preset&#45;rules</text>
</g>
<!-- _sa11y_assert&#45;&gt;_sa11y_preset_rules -->
<g id="edge3" class="edge">
<title>_sa11y_assert&#45;&gt;_sa11y_preset_rules</title>
<path fill="none" stroke="#007f00" d="M779.44,-149.81C770.36,-147.82 760.95,-145.81 752.1,-144 682.6,-129.75 603.11,-114.84 546.63,-104.47"/>
<polygon fill="#007f00" stroke="#007f00" points="547.18,-101.02 536.71,-102.66 545.92,-107.9 547.18,-101.02"/>
</g>
<!-- axe_core -->
<g id="node5" class="node">
<title>axe_core</title>
<ellipse fill="none" stroke="#007f7f" cx="750.1" cy="-18" rx="44.04" ry="18"/>
<text text-anchor="middle" x="750.1" y="-13.8" font-family="Times,serif" font-size="14.00">axe&#45;core</text>
</g>
<!-- _sa11y_assert&#45;&gt;axe_core -->
<g id="edge4" class="edge">
<title>_sa11y_assert&#45;&gt;axe_core</title>
<path fill="none" stroke="#007f7f" d="M881.27,-150.66C905.01,-143.07 930.92,-130.07 945.1,-108 953.75,-94.54 954.82,-84.71 945.1,-72 927.72,-49.27 853.31,-33.99 801.61,-25.89"/>
<polygon fill="#007f7f" stroke="#007f7f" points="802.01,-22.41 791.6,-24.37 800.96,-29.33 802.01,-22.41"/>
</g>
<!-- _sa11y_common&#45;&gt;axe_core -->
<g id="edge8" class="edge">
<title>_sa11y_common&#45;&gt;axe_core</title>
<path fill="none" stroke="#007f7f" d="M832.28,-72.76C817.07,-62.81 797.47,-49.99 781.23,-39.36"/>
<polygon fill="#007f7f" stroke="#007f7f" points="782.88,-36.26 772.6,-33.72 779.05,-42.12 782.88,-36.26"/>
</g>
<!-- _sa11y_format&#45;&gt;axe_core -->
<g id="edge9" class="edge">
<title>_sa11y_format&#45;&gt;axe_core</title>
<path fill="none" stroke="#007f7f" d="M674.06,-72.76C687.91,-62.97 705.69,-50.4 720.58,-39.88"/>
<polygon fill="#007f7f" stroke="#007f7f" points="722.81,-42.58 728.95,-33.95 718.77,-36.87 722.81,-42.58"/>
</g>
<!-- _sa11y_browser_lib -->
<g id="node6" class="node">
<title>_sa11y_browser_lib</title>
<ellipse fill="none" stroke="#007fff" cx="431.1" cy="-162" rx="89.8" ry="18"/>
<text text-anchor="middle" x="431.1" y="-157.8" font-family="Times,serif" font-size="14.00">@sa11y/browser&#45;lib</text>
</g>
<!-- _sa11y_browser_lib&#45;&gt;_sa11y_format -->
<g id="edge5" class="edge">
<title>_sa11y_browser_lib&#45;&gt;_sa11y_format</title>
<path fill="none" stroke="#0000ff" d="M476.68,-146.5C512.27,-135.17 561.74,-119.43 598.91,-107.61"/>
<polygon fill="#0000ff" stroke="#0000ff" points="600.09,-110.9 608.56,-104.54 597.97,-104.23 600.09,-110.9"/>
</g>
<!-- _sa11y_browser_lib&#45;&gt;_sa11y_preset_rules -->
<g id="edge6" class="edge">
<title>_sa11y_browser_lib&#45;&gt;_sa11y_preset_rules</title>
<path fill="none" stroke="#007f00" d="M441.03,-144.05C445.79,-135.92 451.6,-126 456.91,-116.94"/>
<polygon fill="#007f00" stroke="#007f00" points="459.95,-118.67 461.98,-108.28 453.91,-115.14 459.95,-118.67"/>
</g>
<!-- _sa11y_browser_lib&#45;&gt;axe_core -->
<g id="edge7" class="edge">
<title>_sa11y_browser_lib&#45;&gt;axe_core</title>
<path fill="none" stroke="#007f7f" d="M407.19,-144.3C383.37,-125.67 353.02,-95.11 373.1,-72 414.22,-24.7 601.3,-18.39 695.53,-18.3"/>
<polygon fill="#007f7f" stroke="#007f7f" points="695.71,-21.8 705.72,-18.32 695.72,-14.8 695.71,-21.8"/>
</g>
<!-- _sa11y_jest -->
<g id="node7" class="node">
<title>_sa11y_jest</title>
<ellipse fill="none" stroke="#00ff00" cx="549.1" cy="-234" rx="58.6" ry="18"/>
<text text-anchor="middle" x="549.1" y="-229.8" font-family="Times,serif" font-size="14.00">@sa11y/jest</text>
</g>
<!-- _sa11y_jest&#45;&gt;_sa11y_assert -->
<g id="edge11" class="edge">
<title>_sa11y_jest&#45;&gt;_sa11y_assert</title>
<path fill="none" stroke="#000000" d="M592.7,-221.91C600.49,-219.93 608.54,-217.9 616.1,-216 668.62,-202.8 728.47,-187.93 771.32,-177.3"/>
<polygon fill="#000000" stroke="#000000" points="772.42,-180.63 781.29,-174.83 770.74,-173.84 772.42,-180.63"/>
</g>
<!-- _sa11y_jest&#45;&gt;_sa11y_format -->
<g id="edge12" class="edge">
<title>_sa11y_jest&#45;&gt;_sa11y_format</title>
<path fill="none" stroke="#0000ff" d="M558.96,-216.15C569.85,-197.92 588.21,-168.19 606.1,-144 613.24,-134.34 621.64,-124.18 629.22,-115.37"/>
<polygon fill="#0000ff" stroke="#0000ff" points="631.97,-117.55 635.91,-107.71 626.7,-112.94 631.97,-117.55"/>
</g>
<!-- _sa11y_jest&#45;&gt;_sa11y_preset_rules -->
<g id="edge13" class="edge">
<title>_sa11y_jest&#45;&gt;_sa11y_preset_rules</title>
<path fill="none" stroke="#007f00" d="M548.52,-215.83C547.21,-197.05 543.06,-166.62 530.1,-144 523.64,-132.72 513.95,-122.49 504.33,-114.1"/>
<polygon fill="#007f00" stroke="#007f00" points="506.27,-111.17 496.34,-107.49 501.82,-116.56 506.27,-111.17"/>
</g>
<!-- _jest_test_result -->
<g id="node8" class="node">
<title>_jest_test_result</title>
<ellipse fill="none" stroke="#00ff7f" cx="74.1" cy="-162" rx="74.2" ry="18"/>
<text text-anchor="middle" x="74.1" y="-157.8" font-family="Times,serif" font-size="14.00">@jest/test&#45;result</text>
</g>
<!-- _sa11y_jest&#45;&gt;_jest_test_result -->
<g id="edge10" class="edge">
<title>_sa11y_jest&#45;&gt;_jest_test_result</title>
<path fill="none" stroke="#00ff7f" d="M495.03,-226.86C419.26,-218 277.28,-200.41 157.1,-180 150.82,-178.93 144.29,-177.74 137.77,-176.5"/>
<polygon fill="#00ff7f" stroke="#00ff7f" points="138.06,-172.99 127.58,-174.51 136.72,-179.86 138.06,-172.99"/>
</g>
<!-- jest_matcher_utils -->
<g id="node9" class="node">
<title>jest_matcher_utils</title>
<ellipse fill="none" stroke="#00ffff" cx="245.1" cy="-162" rx="78.72" ry="18"/>
<text text-anchor="middle" x="245.1" y="-157.8" font-family="Times,serif" font-size="14.00">jest&#45;matcher&#45;utils</text>
</g>
<!-- _sa11y_jest&#45;&gt;jest_matcher_utils -->
<g id="edge14" class="edge">
<title>_sa11y_jest&#45;&gt;jest_matcher_utils</title>
<path fill="none" stroke="#00ffff" d="M503.59,-222.52C451.68,-210.57 366.48,-190.95 308.19,-177.53"/>
<polygon fill="#00ffff" stroke="#00ffff" points="308.88,-174.1 298.35,-175.26 307.31,-180.92 308.88,-174.1"/>
</g>
<!-- _sa11y_test_utils -->
<g id="node10" class="node">
<title>_sa11y_test_utils</title>
<ellipse fill="none" stroke="#7f007f" cx="993.1" cy="-162" rx="78.3" ry="18"/>
<text text-anchor="middle" x="993.1" y="-157.8" font-family="Times,serif" font-size="14.00">@sa11y/test&#45;utils</text>
</g>
<!-- _sa11y_test_utils&#45;&gt;_sa11y_common -->
<g id="edge15" class="edge">
<title>_sa11y_test_utils&#45;&gt;_sa11y_common</title>
<path fill="none" stroke="#00007f" d="M962.58,-145.29C943.07,-135.25 917.57,-122.12 896.53,-111.3"/>
<polygon fill="#00007f" stroke="#00007f" points="898.01,-108.12 887.52,-106.66 894.81,-114.35 898.01,-108.12"/>
</g>
<!-- _sa11y_wdio -->
<g id="node11" class="node">
<title>_sa11y_wdio</title>
<ellipse fill="none" stroke="#7f00ff" cx="679.1" cy="-162" rx="64.41" ry="18"/>
<text text-anchor="middle" x="679.1" y="-157.8" font-family="Times,serif" font-size="14.00">@sa11y/wdio</text>
</g>
<!-- _sa11y_wdio&#45;&gt;_sa11y_common -->
<g id="edge16" class="edge">
<title>_sa11y_wdio&#45;&gt;_sa11y_common</title>
<path fill="none" stroke="#00007f" d="M715.12,-146.83C742.44,-136.09 780.22,-121.23 809.95,-109.54"/>
<polygon fill="#00007f" stroke="#00007f" points="811.26,-112.79 819.29,-105.87 808.7,-106.27 811.26,-112.79"/>
</g>
<!-- _sa11y_wdio&#45;&gt;_sa11y_format -->
<g id="edge17" class="edge">
<title>_sa11y_wdio&#45;&gt;_sa11y_format</title>
<path fill="none" stroke="#0000ff" d="M672.32,-144.05C669.17,-136.18 665.35,-126.62 661.82,-117.79"/>
<polygon fill="#0000ff" stroke="#0000ff" points="664.97,-116.26 658.01,-108.28 658.47,-118.86 664.97,-116.26"/>
</g>
<!-- _sa11y_wdio&#45;&gt;_sa11y_preset_rules -->
<g id="edge18" class="edge">
<title>_sa11y_wdio&#45;&gt;_sa11y_preset_rules</title>
<path fill="none" stroke="#007f00" d="M639.68,-147.67C607.4,-136.75 561.43,-121.21 525.79,-109.16"/>
<polygon fill="#007f00" stroke="#007f00" points="526.63,-105.74 516.03,-105.86 524.39,-112.38 526.63,-105.74"/>
</g>
<!-- _sa11y_wdio&#45;&gt;axe_core -->
<g id="edge19" class="edge">
<title>_sa11y_wdio&#45;&gt;axe_core</title>
<path fill="none" stroke="#007f7f" d="M699.76,-144.95C710.69,-135.37 723.41,-122.31 731.1,-108 741.42,-88.8 746.13,-64.46 748.29,-46.08"/>
<polygon fill="#007f7f" stroke="#007f7f" points="751.78,-46.33 749.28,-36.04 744.81,-45.64 751.78,-46.33"/>
</g>
<!-- _sa11y_test_integration -->
<g id="node12" class="node">
<title>_sa11y_test_integration</title>
<ellipse fill="none" stroke="#7f0000" cx="729.1" cy="-234" rx="103.7" ry="18"/>
<text text-anchor="middle" x="729.1" y="-229.8" font-family="Times,serif" font-size="14.00">@sa11y/test&#45;integration</text>
</g>
</g>
</svg>
