<?xml version="1.0" encoding="UTF-8" standalone="no"?>
<!DOCTYPE svg PUBLIC "-//W3C//DTD SVG 1.1//EN"
 "http://www.w3.org/Graphics/SVG/1.1/DTD/svg11.dtd">
<!-- Generated by graphviz version 2.44.0 (20200408.0750)
 -->
<!-- Pages: 1 -->
<svg width="913pt" height="260pt"
 viewBox="0.00 0.00 913.01 260.00" xmlns="http://www.w3.org/2000/svg" xmlns:xlink="http://www.w3.org/1999/xlink">
<g id="graph0" class="graph" transform="scale(1 1) rotate(0) translate(4 256)">
<polygon fill="white" stroke="transparent" points="-4,4 -4,-256 909.01,-256 909.01,4 -4,4"/>
<!-- _sa11y_assert -->
<g id="node1" class="node">
<title>_sa11y_assert</title>
<ellipse fill="none" stroke="#000000" cx="426.4" cy="-162" rx="67.25" ry="18"/>
<text text-anchor="middle" x="426.4" y="-157.8" font-family="Times,serif" font-size="14.00">@sa11y/assert</text>
</g>
<!-- _sa11y_common -->
<g id="node2" class="node">
<title>_sa11y_common</title>
<ellipse fill="none" stroke="#00007f" cx="119.4" cy="-90" rx="78.87" ry="18"/>
<text text-anchor="middle" x="119.4" y="-85.8" font-family="Times,serif" font-size="14.00">@sa11y/common</text>
</g>
<!-- _sa11y_assert&#45;&gt;_sa11y_common -->
<g id="edge1" class="edge">
<title>_sa11y_assert&#45;&gt;_sa11y_common</title>
<path fill="none" stroke="#00007f" d="M377.08,-149.75C324.39,-137.74 240.7,-118.66 183.08,-105.52"/>
<polygon fill="#00007f" stroke="#00007f" points="183.52,-102.03 172.99,-103.22 181.96,-108.85 183.52,-102.03"/>
</g>
<!-- _sa11y_format -->
<g id="node3" class="node">
<title>_sa11y_format</title>
<ellipse fill="none" stroke="#0000ff" cx="561.4" cy="-90" rx="70.76" ry="18"/>
<text text-anchor="middle" x="561.4" y="-85.8" font-family="Times,serif" font-size="14.00">@sa11y/format</text>
</g>
<!-- _sa11y_assert&#45;&gt;_sa11y_format -->
<g id="edge2" class="edge">
<title>_sa11y_assert&#45;&gt;_sa11y_format</title>
<path fill="none" stroke="#0000ff" d="M456.03,-145.64C475.5,-135.54 501.19,-122.22 522.33,-111.26"/>
<polygon fill="#0000ff" stroke="#0000ff" points="524.11,-114.28 531.38,-106.57 520.89,-108.06 524.11,-114.28"/>
</g>
<!-- _sa11y_preset_rules -->
<g id="node4" class="node">
<title>_sa11y_preset_rules</title>
<ellipse fill="none" stroke="#007f00" cx="344.4" cy="-90" rx="90.36" ry="18"/>
<text text-anchor="middle" x="344.4" y="-85.8" font-family="Times,serif" font-size="14.00">@sa11y/preset&#45;rules</text>
</g>
<!-- _sa11y_assert&#45;&gt;_sa11y_preset_rules -->
<g id="edge3" class="edge">
<title>_sa11y_assert&#45;&gt;_sa11y_preset_rules</title>
<path fill="none" stroke="#007f00" d="M406.97,-144.41C396.42,-135.41 383.22,-124.14 371.66,-114.27"/>
<polygon fill="#007f00" stroke="#007f00" points="373.86,-111.54 363.98,-107.71 369.31,-116.87 373.86,-111.54"/>
</g>
<!-- axe_core -->
<g id="node5" class="node">
<title>axe_core</title>
<ellipse fill="none" stroke="#007f7f" cx="403.4" cy="-18" rx="44.04" ry="18"/>
<text text-anchor="middle" x="403.4" y="-13.8" font-family="Times,serif" font-size="14.00">axe&#45;core</text>
</g>
<!-- _sa11y_assert&#45;&gt;axe_core -->
<g id="edge4" class="edge">
<title>_sa11y_assert&#45;&gt;axe_core</title>
<path fill="none" stroke="#007f7f" d="M434.73,-143.92C442.43,-125.75 451.55,-96.31 443.4,-72 439.85,-61.4 433.25,-51.22 426.41,-42.67"/>
<polygon fill="#007f7f" stroke="#007f7f" points="429.03,-40.35 419.89,-35.01 423.71,-44.89 429.03,-40.35"/>
</g>
<!-- _sa11y_common&#45;&gt;axe_core -->
<g id="edge8" class="edge">
<title>_sa11y_common&#45;&gt;axe_core</title>
<path fill="none" stroke="#007f7f" d="M170.83,-76.32C223.73,-63.29 305.41,-43.15 356.56,-30.54"/>
<polygon fill="#007f7f" stroke="#007f7f" points="357.5,-33.92 366.37,-28.13 355.82,-27.12 357.5,-33.92"/>
</g>
<!-- webdriverio -->
<g id="node7" class="node">
<title>webdriverio</title>
<ellipse fill="none" stroke="#00ff00" cx="119.4" cy="-18" rx="57.88" ry="18"/>
<text text-anchor="middle" x="119.4" y="-13.8" font-family="Times,serif" font-size="14.00">webdriverio</text>
</g>
<!-- _sa11y_common&#45;&gt;webdriverio -->
<g id="edge9" class="edge">
<title>_sa11y_common&#45;&gt;webdriverio</title>
<path fill="none" stroke="#00ff00" d="M119.4,-71.7C119.4,-63.98 119.4,-54.71 119.4,-46.11"/>
<polygon fill="#00ff00" stroke="#00ff00" points="122.9,-46.1 119.4,-36.1 115.9,-46.1 122.9,-46.1"/>
</g>
<!-- _sa11y_format&#45;&gt;axe_core -->
<g id="edge10" class="edge">
<title>_sa11y_format&#45;&gt;axe_core</title>
<path fill="none" stroke="#007f7f" d="M527.51,-73.98C502.23,-62.78 467.69,-47.48 441.46,-35.86"/>
<polygon fill="#007f7f" stroke="#007f7f" points="442.77,-32.61 432.21,-31.76 439.93,-39.01 442.77,-32.61"/>
</g>
<!-- _sa11y_preset_rules&#45;&gt;axe_core -->
<g id="edge15" class="edge">
<title>_sa11y_preset_rules&#45;&gt;axe_core</title>
<path fill="none" stroke="#007f7f" d="M358.68,-72.05C366.04,-63.33 375.13,-52.54 383.19,-42.98"/>
<polygon fill="#007f7f" stroke="#007f7f" points="385.89,-45.21 389.66,-35.31 380.54,-40.7 385.89,-45.21"/>
</g>
<!-- _sa11y_browser_lib -->
<g id="node6" class="node">
<title>_sa11y_browser_lib</title>
<ellipse fill="none" stroke="#007fff" cx="601.4" cy="-162" rx="89.8" ry="18"/>
<text text-anchor="middle" x="601.4" y="-157.8" font-family="Times,serif" font-size="14.00">@sa11y/browser&#45;lib</text>
</g>
<!-- _sa11y_browser_lib&#45;&gt;_sa11y_format -->
<g id="edge5" class="edge">
<title>_sa11y_browser_lib&#45;&gt;_sa11y_format</title>
<path fill="none" stroke="#0000ff" d="M591.72,-144.05C587.12,-136.01 581.52,-126.2 576.39,-117.23"/>
<polygon fill="#0000ff" stroke="#0000ff" points="579.27,-115.22 571.27,-108.28 573.19,-118.69 579.27,-115.22"/>
</g>
<!-- _sa11y_browser_lib&#45;&gt;_sa11y_preset_rules -->
<g id="edge6" class="edge">
<title>_sa11y_browser_lib&#45;&gt;_sa11y_preset_rules</title>
<path fill="none" stroke="#007f00" d="M550.32,-147.09C508.54,-135.71 449.35,-119.59 405.14,-107.55"/>
<polygon fill="#007f00" stroke="#007f00" points="405.95,-104.14 395.39,-104.89 404.11,-110.89 405.95,-104.14"/>
</g>
<!-- _sa11y_browser_lib&#45;&gt;axe_core -->
<g id="edge7" class="edge">
<title>_sa11y_browser_lib&#45;&gt;axe_core</title>
<path fill="none" stroke="#007f7f" d="M618.96,-144.21C636.68,-125.22 659.1,-94.07 641.4,-72 618.7,-43.69 519.65,-29.53 456.7,-23.26"/>
<polygon fill="#007f7f" stroke="#007f7f" points="456.83,-19.76 446.54,-22.29 456.16,-26.72 456.83,-19.76"/>
</g>
<!-- _sa11y_jest -->
<g id="node8" class="node">
<title>_sa11y_jest</title>
<ellipse fill="none" stroke="#00ff7f" cx="572.4" cy="-234" rx="58.6" ry="18"/>
<text text-anchor="middle" x="572.4" y="-229.8" font-family="Times,serif" font-size="14.00">@sa11y/jest</text>
</g>
<!-- _sa11y_jest&#45;&gt;_sa11y_assert -->
<g id="edge11" class="edge">
<title>_sa11y_jest&#45;&gt;_sa11y_assert</title>
<path fill="none" stroke="#000000" d="M542.15,-218.5C520.32,-208.03 490.63,-193.79 466.78,-182.36"/>
<polygon fill="#000000" stroke="#000000" points="468.15,-179.14 457.62,-177.97 465.12,-185.45 468.15,-179.14"/>
</g>
<!-- _sa11y_jest&#45;&gt;_sa11y_format -->
<g id="edge12" class="edge">
<title>_sa11y_jest&#45;&gt;_sa11y_format</title>
<path fill="none" stroke="#0000ff" d="M613.91,-221.29C647.31,-210.93 690.28,-195.15 700.4,-180 709.29,-166.7 709.48,-157.18 700.4,-144 685.07,-121.75 659.05,-108.83 633.64,-101.34"/>
<polygon fill="#0000ff" stroke="#0000ff" points="634.52,-97.95 623.96,-98.72 632.7,-104.71 634.52,-97.95"/>
</g>
<!-- _sa11y_jest&#45;&gt;_sa11y_preset_rules -->
<g id="edge13" class="edge">
<title>_sa11y_jest&#45;&gt;_sa11y_preset_rules</title>
<path fill="none" stroke="#007f00" d="M517.78,-227.33C459.2,-220.03 371.7,-205.19 350.4,-180 336.23,-163.24 335.91,-137.75 338.45,-118.34"/>
<polygon fill="#007f00" stroke="#007f00" points="341.94,-118.71 340.09,-108.28 335.03,-117.59 341.94,-118.71"/>
</g>
<!-- jest_matcher_utils -->
<g id="node9" class="node">
<title>jest_matcher_utils</title>
<ellipse fill="none" stroke="#00ffff" cx="826.4" cy="-162" rx="78.72" ry="18"/>
<text text-anchor="middle" x="826.4" y="-157.8" font-family="Times,serif" font-size="14.00">jest&#45;matcher&#45;utils</text>
</g>
<!-- _sa11y_jest&#45;&gt;jest_matcher_utils -->
<g id="edge14" class="edge">
<title>_sa11y_jest&#45;&gt;jest_matcher_utils</title>
<path fill="none" stroke="#00ffff" d="M614.63,-221.36C656.64,-209.78 721.43,-191.93 768.28,-179.02"/>
<polygon fill="#00ffff" stroke="#00ffff" points="769.28,-182.37 777.99,-176.34 767.42,-175.62 769.28,-182.37"/>
</g>
<!-- _sa11y_test_utils -->
<g id="node10" class="node">
<title>_sa11y_test_utils</title>
<ellipse fill="none" stroke="#7f007f" cx="78.4" cy="-162" rx="78.3" ry="18"/>
<text text-anchor="middle" x="78.4" y="-157.8" font-family="Times,serif" font-size="14.00">@sa11y/test&#45;utils</text>
</g>
<!-- _sa11y_test_utils&#45;&gt;_sa11y_common -->
<g id="edge16" class="edge">
<title>_sa11y_test_utils&#45;&gt;_sa11y_common</title>
<path fill="none" stroke="#00007f" d="M88.33,-144.05C93.09,-135.92 98.9,-126 104.21,-116.94"/>
<polygon fill="#00007f" stroke="#00007f" points="107.25,-118.67 109.28,-108.28 101.21,-115.14 107.25,-118.67"/>
</g>
<!-- _sa11y_wdio -->
<g id="node11" class="node">
<title>_sa11y_wdio</title>
<ellipse fill="none" stroke="#7f00ff" cx="239.4" cy="-162" rx="64.41" ry="18"/>
<text text-anchor="middle" x="239.4" y="-157.8" font-family="Times,serif" font-size="14.00">@sa11y/wdio</text>
</g>
<!-- _sa11y_wdio&#45;&gt;_sa11y_common -->
<g id="edge17" class="edge">
<title>_sa11y_wdio&#45;&gt;_sa11y_common</title>
<path fill="none" stroke="#00007f" d="M212.77,-145.46C195.92,-135.63 173.91,-122.8 155.5,-112.06"/>
<polygon fill="#00007f" stroke="#00007f" points="157.19,-108.99 146.79,-106.98 153.66,-115.04 157.19,-108.99"/>
</g>
<!-- _sa11y_wdio&#45;&gt;_sa11y_format -->
<g id="edge18" class="edge">
<title>_sa11y_wdio&#45;&gt;_sa11y_format</title>
<path fill="none" stroke="#0000ff" d="M288.66,-150.29C345.23,-137.99 438.13,-117.8 499.53,-104.45"/>
<polygon fill="#0000ff" stroke="#0000ff" points="500.45,-107.83 509.48,-102.29 498.97,-100.99 500.45,-107.83"/>
</g>
<!-- _sa11y_wdio&#45;&gt;_sa11y_preset_rules -->
<g id="edge19" class="edge">
<title>_sa11y_wdio&#45;&gt;_sa11y_preset_rules</title>
<path fill="none" stroke="#007f00" d="M263.23,-145.12C277.42,-135.65 295.64,-123.5 311.23,-113.11"/>
<polygon fill="#007f00" stroke="#007f00" points="313.19,-116.01 319.57,-107.55 309.31,-110.19 313.19,-116.01"/>
</g>
<!-- _sa11y_wdio&#45;&gt;axe_core -->
<g id="edge20" class="edge">
<title>_sa11y_wdio&#45;&gt;axe_core</title>
<path fill="none" stroke="#007f7f" d="M235.41,-143.98C231.89,-124.49 229.51,-92.6 245.4,-72 269.85,-40.31 314.02,-27.39 349.45,-22.21"/>
<polygon fill="#007f7f" stroke="#007f7f" points="350.19,-25.65 359.66,-20.9 349.3,-18.71 350.19,-25.65"/>
</g>
<!-- _sa11y_test_integration -->
<g id="node12" class="node">
<title>_sa11y_test_integration</title>
<ellipse fill="none" stroke="#7f0000" cx="752.4" cy="-234" rx="103.7" ry="18"/>
<text text-anchor="middle" x="752.4" y="-229.8" font-family="Times,serif" font-size="14.00">@sa11y/test&#45;integration</text>
</g>
</g>
</svg>
