<?xml version="1.0" encoding="UTF-8" standalone="no"?>
<!DOCTYPE svg PUBLIC "-//W3C//DTD SVG 1.1//EN"
 "http://www.w3.org/Graphics/SVG/1.1/DTD/svg11.dtd">
<!-- Generated by graphviz version 2.47.3 (20210619.1520)
 -->
<!-- Pages: 1 -->
<svg width="905pt" height="404pt"
 viewBox="0.00 0.00 905.22 404.00" xmlns="http://www.w3.org/2000/svg" xmlns:xlink="http://www.w3.org/1999/xlink">
<g id="graph0" class="graph" transform="scale(1 1) rotate(0) translate(4 400)">
<polygon fill="white" stroke="transparent" points="-4,4 -4,-400 901.22,-400 901.22,4 -4,4"/>
<!-- _sa11y_assert -->
<g id="node1" class="node">
<title>_sa11y_assert</title>
<ellipse fill="none" stroke="#000000" cx="67.12" cy="-306" rx="67.25" ry="18"/>
<text text-anchor="middle" x="67.12" y="-301.8" font-family="Times,serif" font-size="14.00">@sa11y/assert</text>
</g>
<!-- _sa11y_common -->
<g id="node2" class="node">
<title>_sa11y_common</title>
<ellipse fill="none" stroke="#00007f" cx="314.12" cy="-90" rx="78.87" ry="18"/>
<text text-anchor="middle" x="314.12" y="-85.8" font-family="Times,serif" font-size="14.00">@sa11y/common</text>
</g>
<!-- _sa11y_assert&#45;&gt;_sa11y_common -->
<g id="edge1" class="edge">
<title>_sa11y_assert&#45;&gt;_sa11y_common</title>
<path fill="none" stroke="#00007f" d="M79.57,-288.25C103.43,-256.98 158.35,-188.83 216.12,-144 232.65,-131.18 252.7,-119.73 270.35,-110.78"/>
<polygon fill="#00007f" stroke="#00007f" points="271.92,-113.91 279.33,-106.34 268.82,-107.64 271.92,-113.91"/>
</g>
<!-- _sa11y_format -->
<g id="node3" class="node">
<title>_sa11y_format</title>
<ellipse fill="none" stroke="#0000ff" cx="338.12" cy="-234" rx="70.76" ry="18"/>
<text text-anchor="middle" x="338.12" y="-229.8" font-family="Times,serif" font-size="14.00">@sa11y/format</text>
</g>
<!-- _sa11y_assert&#45;&gt;_sa11y_format -->
<g id="edge2" class="edge">
<title>_sa11y_assert&#45;&gt;_sa11y_format</title>
<path fill="none" stroke="#0000ff" d="M113.71,-292.97C159.87,-281.04 230.66,-262.76 280.37,-249.92"/>
<polygon fill="#0000ff" stroke="#0000ff" points="281.52,-253.24 290.33,-247.35 279.77,-246.46 281.52,-253.24"/>
</g>
<!-- _sa11y_preset_rules -->
<g id="node4" class="node">
<title>_sa11y_preset_rules</title>
<ellipse fill="none" stroke="#007f00" cx="501.12" cy="-162" rx="90.36" ry="18"/>
<text text-anchor="middle" x="501.12" y="-157.8" font-family="Times,serif" font-size="14.00">@sa11y/preset&#45;rules</text>
</g>
<!-- _sa11y_assert&#45;&gt;_sa11y_preset_rules -->
<g id="edge3" class="edge">
<title>_sa11y_assert&#45;&gt;_sa11y_preset_rules</title>
<path fill="none" stroke="#007f00" d="M100.27,-290.28C123.75,-279.77 155.97,-265.22 184.12,-252 217.23,-236.45 223.57,-227.98 258.12,-216 289.02,-205.29 368.44,-188.69 428.14,-176.93"/>
<polygon fill="#007f00" stroke="#007f00" points="429.15,-180.3 438.29,-174.94 427.8,-173.43 429.15,-180.3"/>
</g>
<!-- axe_core -->
<g id="node5" class="node">
<title>axe_core</title>
<ellipse fill="none" stroke="#007f7f" cx="314.12" cy="-18" rx="44.04" ry="18"/>
<text text-anchor="middle" x="314.12" y="-13.8" font-family="Times,serif" font-size="14.00">axe&#45;core</text>
</g>
<!-- _sa11y_assert&#45;&gt;axe_core -->
<g id="edge4" class="edge">
<title>_sa11y_assert&#45;&gt;axe_core</title>
<path fill="none" stroke="#007f7f" d="M73.43,-287.89C89.8,-245.65 137.57,-135.25 211.12,-72 229.42,-56.27 253.19,-43.64 273.29,-34.66"/>
<polygon fill="#007f7f" stroke="#007f7f" points="274.73,-37.85 282.53,-30.67 271.96,-31.42 274.73,-37.85"/>
</g>
<!-- _sa11y_common&#45;&gt;axe_core -->
<g id="edge8" class="edge">
<title>_sa11y_common&#45;&gt;axe_core</title>
<path fill="none" stroke="#007f7f" d="M314.12,-71.7C314.12,-63.98 314.12,-54.71 314.12,-46.11"/>
<polygon fill="#007f7f" stroke="#007f7f" points="317.62,-46.1 314.12,-36.1 310.62,-46.1 317.62,-46.1"/>
</g>
<!-- _sa11y_format&#45;&gt;_sa11y_common -->
<g id="edge9" class="edge">
<title>_sa11y_format&#45;&gt;_sa11y_common</title>
<path fill="none" stroke="#00007f" d="M286.7,-221.58C264.37,-213.8 240.34,-200.95 227.12,-180 218.59,-166.47 219.29,-157.95 227.12,-144 235.37,-129.32 249.53,-118.22 264.05,-110.08"/>
<polygon fill="#00007f" stroke="#00007f" points="265.82,-113.1 273.09,-105.39 262.6,-106.89 265.82,-113.1"/>
</g>
<!-- _sa11y_format&#45;&gt;_sa11y_preset_rules -->
<g id="edge10" class="edge">
<title>_sa11y_format&#45;&gt;_sa11y_preset_rules</title>
<path fill="none" stroke="#007f00" d="M372.69,-218.15C396.83,-207.79 429.3,-193.85 455.55,-182.57"/>
<polygon fill="#007f00" stroke="#007f00" points="457.1,-185.71 464.91,-178.55 454.34,-179.28 457.1,-185.71"/>
</g>
<!-- _sa11y_format&#45;&gt;axe_core -->
<g id="edge11" class="edge">
<title>_sa11y_format&#45;&gt;axe_core</title>
<path fill="none" stroke="#007f7f" d="M282.07,-222.98C257.47,-215.49 230.88,-202.5 216.12,-180 204.09,-161.66 217.37,-85.27 226.12,-72 237.07,-55.42 255.14,-43.24 272.08,-34.76"/>
<polygon fill="#007f7f" stroke="#007f7f" points="273.75,-37.84 281.31,-30.43 270.77,-31.51 273.75,-37.84"/>
</g>
<!-- _sa11y_preset_rules&#45;&gt;_sa11y_common -->
<g id="edge17" class="edge">
<title>_sa11y_preset_rules&#45;&gt;_sa11y_common</title>
<path fill="none" stroke="#00007f" d="M460.55,-145.81C431.86,-135.07 393.25,-120.62 362.89,-109.25"/>
<polygon fill="#00007f" stroke="#00007f" points="363.93,-105.91 353.34,-105.68 361.48,-112.46 363.93,-105.91"/>
</g>
<!-- _sa11y_browser_lib -->
<g id="node6" class="node">
<title>_sa11y_browser_lib</title>
<ellipse fill="none" stroke="#007fff" cx="456.12" cy="-306" rx="89.8" ry="18"/>
<text text-anchor="middle" x="456.12" y="-301.8" font-family="Times,serif" font-size="14.00">@sa11y/browser&#45;lib</text>
</g>
<!-- _sa11y_browser_lib&#45;&gt;_sa11y_format -->
<g id="edge5" class="edge">
<title>_sa11y_browser_lib&#45;&gt;_sa11y_format</title>
<path fill="none" stroke="#0000ff" d="M428.76,-288.76C412.41,-279.07 391.46,-266.64 373.82,-256.17"/>
<polygon fill="#0000ff" stroke="#0000ff" points="375.32,-253 364.94,-250.91 371.75,-259.02 375.32,-253"/>
</g>
<!-- _sa11y_browser_lib&#45;&gt;_sa11y_preset_rules -->
<g id="edge6" class="edge">
<title>_sa11y_browser_lib&#45;&gt;_sa11y_preset_rules</title>
<path fill="none" stroke="#007f00" d="M461.55,-287.87C469.26,-263.56 483.44,-218.82 492.56,-190.01"/>
<polygon fill="#007f00" stroke="#007f00" points="495.99,-190.78 495.68,-180.19 489.32,-188.66 495.99,-190.78"/>
</g>
<!-- _sa11y_browser_lib&#45;&gt;axe_core -->
<g id="edge7" class="edge">
<title>_sa11y_browser_lib&#45;&gt;axe_core</title>
<path fill="none" stroke="#007f7f" d="M489.81,-289.23C543.48,-261.85 638.62,-202.84 600.12,-144 548.27,-64.75 433.91,-35.45 366.57,-24.83"/>
<polygon fill="#007f7f" stroke="#007f7f" points="366.99,-21.36 356.58,-23.34 365.95,-28.28 366.99,-21.36"/>
</g>
<!-- _sa11y_jest -->
<g id="node7" class="node">
<title>_sa11y_jest</title>
<ellipse fill="none" stroke="#00ff00" cx="338.12" cy="-378" rx="58.6" ry="18"/>
<text text-anchor="middle" x="338.12" y="-373.8" font-family="Times,serif" font-size="14.00">@sa11y/jest</text>
</g>
<!-- _sa11y_jest&#45;&gt;_sa11y_assert -->
<g id="edge13" class="edge">
<title>_sa11y_jest&#45;&gt;_sa11y_assert</title>
<path fill="none" stroke="#000000" d="M294.88,-365.83C248.51,-353.85 174.69,-334.78 123.72,-321.62"/>
<polygon fill="#000000" stroke="#000000" points="124.4,-318.18 113.85,-319.07 122.65,-324.96 124.4,-318.18"/>
</g>
<!-- _sa11y_jest&#45;&gt;_sa11y_format -->
<g id="edge14" class="edge">
<title>_sa11y_jest&#45;&gt;_sa11y_format</title>
<path fill="none" stroke="#0000ff" d="M338.12,-359.87C338.12,-335.67 338.12,-291.21 338.12,-262.39"/>
<polygon fill="#0000ff" stroke="#0000ff" points="341.62,-262.19 338.12,-252.19 334.62,-262.19 341.62,-262.19"/>
</g>
<!-- _sa11y_jest&#45;&gt;_sa11y_preset_rules -->
<g id="edge15" class="edge">
<title>_sa11y_jest&#45;&gt;_sa11y_preset_rules</title>
<path fill="none" stroke="#007f00" d="M381.71,-365.85C389.5,-363.89 397.55,-361.87 405.12,-360 471.69,-343.57 512.68,-377.84 555.12,-324 587.43,-283.02 549.25,-221.74 522.61,-187.83"/>
<polygon fill="#007f00" stroke="#007f00" points="525.14,-185.4 516.13,-179.82 519.7,-189.8 525.14,-185.4"/>
</g>
<!-- _jest_test_result -->
<g id="node8" class="node">
<title>_jest_test_result</title>
<ellipse fill="none" stroke="#00ff7f" cx="823.12" cy="-306" rx="74.2" ry="18"/>
<text text-anchor="middle" x="823.12" y="-301.8" font-family="Times,serif" font-size="14.00">@jest/test&#45;result</text>
</g>
<!-- _sa11y_jest&#45;&gt;_jest_test_result -->
<g id="edge12" class="edge">
<title>_sa11y_jest&#45;&gt;_jest_test_result</title>
<path fill="none" stroke="#00ff7f" d="M380.1,-365.39C388.35,-363.38 396.97,-361.47 405.12,-360 552.07,-333.57 591.58,-346.83 739.12,-324 745.84,-322.96 752.84,-321.75 759.8,-320.46"/>
<polygon fill="#00ff7f" stroke="#00ff7f" points="760.76,-323.84 769.93,-318.54 759.45,-316.97 760.76,-323.84"/>
</g>
<!-- jest_matcher_utils -->
<g id="node9" class="node">
<title>jest_matcher_utils</title>
<ellipse fill="none" stroke="#00ffff" cx="231.12" cy="-306" rx="78.72" ry="18"/>
<text text-anchor="middle" x="231.12" y="-301.8" font-family="Times,serif" font-size="14.00">jest&#45;matcher&#45;utils</text>
</g>
<!-- _sa11y_jest&#45;&gt;jest_matcher_utils -->
<g id="edge16" class="edge">
<title>_sa11y_jest&#45;&gt;jest_matcher_utils</title>
<path fill="none" stroke="#00ffff" d="M314.38,-361.46C299.73,-351.88 280.71,-339.44 264.56,-328.87"/>
<polygon fill="#00ffff" stroke="#00ffff" points="266.2,-325.77 255.92,-323.22 262.37,-331.63 266.2,-325.77"/>
</g>
<!-- _sa11y_test_utils -->
<g id="node10" class="node">
<title>_sa11y_test_utils</title>
<ellipse fill="none" stroke="#7f007f" cx="314.12" cy="-162" rx="78.3" ry="18"/>
<text text-anchor="middle" x="314.12" y="-157.8" font-family="Times,serif" font-size="14.00">@sa11y/test&#45;utils</text>
</g>
<!-- _sa11y_test_utils&#45;&gt;_sa11y_common -->
<g id="edge18" class="edge">
<title>_sa11y_test_utils&#45;&gt;_sa11y_common</title>
<path fill="none" stroke="#00007f" d="M314.12,-143.7C314.12,-135.98 314.12,-126.71 314.12,-118.11"/>
<polygon fill="#00007f" stroke="#00007f" points="317.62,-118.1 314.12,-108.1 310.62,-118.1 317.62,-118.1"/>
</g>
<!-- _sa11y_wdio -->
<g id="node11" class="node">
<title>_sa11y_wdio</title>
<ellipse fill="none" stroke="#7f00ff" cx="666.12" cy="-306" rx="64.41" ry="18"/>
<text text-anchor="middle" x="666.12" y="-301.8" font-family="Times,serif" font-size="14.00">@sa11y/wdio</text>
</g>
<!-- _sa11y_wdio&#45;&gt;_sa11y_common -->
<g id="edge19" class="edge">
<title>_sa11y_wdio&#45;&gt;_sa11y_common</title>
<path fill="none" stroke="#00007f" d="M664.42,-288.01C660.13,-254.74 645.72,-181.06 600.12,-144 569.67,-119.25 470.76,-105.01 397.75,-97.65"/>
<polygon fill="#00007f" stroke="#00007f" points="397.92,-94.15 387.63,-96.66 397.24,-101.12 397.92,-94.15"/>
</g>
<!-- _sa11y_wdio&#45;&gt;_sa11y_format -->
<g id="edge20" class="edge">
<title>_sa11y_wdio&#45;&gt;_sa11y_format</title>
<path fill="none" stroke="#0000ff" d="M616.66,-294.44C558.82,-282.1 463.01,-261.65 400.22,-248.25"/>
<polygon fill="#0000ff" stroke="#0000ff" points="400.94,-244.83 390.43,-246.16 399.48,-251.67 400.94,-244.83"/>
</g>
<!-- _sa11y_wdio&#45;&gt;_sa11y_preset_rules -->
<g id="edge21" class="edge">
<title>_sa11y_wdio&#45;&gt;_sa11y_preset_rules</title>
<path fill="none" stroke="#007f00" d="M648.27,-288.69C628.42,-270.65 595.31,-240.87 566.12,-216 554.44,-206.05 541.36,-195.3 530.01,-186.11"/>
<polygon fill="#007f00" stroke="#007f00" points="532.08,-183.28 522.1,-179.72 527.68,-188.73 532.08,-183.28"/>
</g>
<!-- _sa11y_wdio&#45;&gt;axe_core -->
<g id="edge22" class="edge">
<title>_sa11y_wdio&#45;&gt;axe_core</title>
<path fill="none" stroke="#007f7f" d="M669.01,-287.84C671.43,-269.6 673.42,-240.11 666.12,-216 642.71,-138.66 624.67,-113.14 555.12,-72 497.17,-37.72 419.54,-25.55 368.23,-21.27"/>
<polygon fill="#007f7f" stroke="#007f7f" points="368.26,-17.76 358.02,-20.49 367.73,-24.74 368.26,-17.76"/>
</g>
<!-- _sa11y_test_integration -->
<g id="node12" class="node">
<title>_sa11y_test_integration</title>
<ellipse fill="none" stroke="#7f0000" cx="518.12" cy="-378" rx="103.7" ry="18"/>
<text text-anchor="middle" x="518.12" y="-373.8" font-family="Times,serif" font-size="14.00">@sa11y/test&#45;integration</text>
</g>
</g>
</svg>
