<?xml version="1.0" encoding="UTF-8" standalone="no"?>
<!DOCTYPE svg PUBLIC "-//W3C//DTD SVG 1.1//EN"
 "http://www.w3.org/Graphics/SVG/1.1/DTD/svg11.dtd">
<!-- Generated by graphviz version 2.44.0 (20200408.0750)
 -->
<!-- Pages: 1 -->
<svg width="847pt" height="260pt"
 viewBox="0.00 0.00 847.00 260.00" xmlns="http://www.w3.org/2000/svg" xmlns:xlink="http://www.w3.org/1999/xlink">
<g id="graph0" class="graph" transform="scale(1 1) rotate(0) translate(4 256)">
<polygon fill="white" stroke="transparent" points="-4,4 -4,-256 843,-256 843,4 -4,4"/>
<!-- _sa11y_assert -->
<g id="node1" class="node">
<title>_sa11y_assert</title>
<ellipse fill="none" stroke="#000000" cx="279.4" cy="-162" rx="67.25" ry="18"/>
<text text-anchor="middle" x="279.4" y="-157.8" font-family="Times,serif" font-size="14.00">@sa11y/assert</text>
</g>
<!-- _sa11y_common -->
<g id="node2" class="node">
<title>_sa11y_common</title>
<ellipse fill="none" stroke="#00007f" cx="161.4" cy="-90" rx="78.87" ry="18"/>
<text text-anchor="middle" x="161.4" y="-85.8" font-family="Times,serif" font-size="14.00">@sa11y/common</text>
</g>
<!-- _sa11y_assert&#45;&gt;_sa11y_common -->
<g id="edge1" class="edge">
<title>_sa11y_assert&#45;&gt;_sa11y_common</title>
<path fill="none" stroke="#00007f" d="M252.92,-145.29C236.6,-135.61 215.46,-123.07 197.61,-112.48"/>
<polygon fill="#00007f" stroke="#00007f" points="199,-109.23 188.61,-107.14 195.43,-115.25 199,-109.23"/>
</g>
<!-- _sa11y_format -->
<g id="node3" class="node">
<title>_sa11y_format</title>
<ellipse fill="none" stroke="#0000ff" cx="565.4" cy="-90" rx="70.76" ry="18"/>
<text text-anchor="middle" x="565.4" y="-85.8" font-family="Times,serif" font-size="14.00">@sa11y/format</text>
</g>
<!-- _sa11y_assert&#45;&gt;_sa11y_format -->
<g id="edge2" class="edge">
<title>_sa11y_assert&#45;&gt;_sa11y_format</title>
<path fill="none" stroke="#0000ff" d="M327.27,-149.28C376.42,-137.25 453.01,-118.51 506,-105.54"/>
<polygon fill="#0000ff" stroke="#0000ff" points="507.05,-108.88 515.93,-103.11 505.39,-102.09 507.05,-108.88"/>
</g>
<!-- _sa11y_preset_rules -->
<g id="node4" class="node">
<title>_sa11y_preset_rules</title>
<ellipse fill="none" stroke="#007f00" cx="348.4" cy="-90" rx="90.36" ry="18"/>
<text text-anchor="middle" x="348.4" y="-85.8" font-family="Times,serif" font-size="14.00">@sa11y/preset&#45;rules</text>
</g>
<!-- _sa11y_assert&#45;&gt;_sa11y_preset_rules -->
<g id="edge3" class="edge">
<title>_sa11y_assert&#45;&gt;_sa11y_preset_rules</title>
<path fill="none" stroke="#007f00" d="M295.75,-144.41C304.31,-135.73 314.94,-124.95 324.41,-115.34"/>
<polygon fill="#007f00" stroke="#007f00" points="327.16,-117.54 331.69,-107.96 322.17,-112.62 327.16,-117.54"/>
</g>
<!-- axe_core -->
<g id="node5" class="node">
<title>axe_core</title>
<ellipse fill="none" stroke="#007f7f" cx="348.4" cy="-18" rx="44.04" ry="18"/>
<text text-anchor="middle" x="348.4" y="-13.8" font-family="Times,serif" font-size="14.00">axe&#45;core</text>
</g>
<!-- _sa11y_assert&#45;&gt;axe_core -->
<g id="edge4" class="edge">
<title>_sa11y_assert&#45;&gt;axe_core</title>
<path fill="none" stroke="#007f7f" d="M226.48,-150.86C168.65,-139.25 82.9,-120.26 73.4,-108 63.6,-95.36 63.21,-84.34 73.4,-72 100.88,-38.72 222.48,-26.11 294.46,-21.51"/>
<polygon fill="#007f7f" stroke="#007f7f" points="294.93,-24.98 304.7,-20.88 294.51,-18 294.93,-24.98"/>
</g>
<!-- _sa11y_common&#45;&gt;axe_core -->
<g id="edge8" class="edge">
<title>_sa11y_common&#45;&gt;axe_core</title>
<path fill="none" stroke="#007f7f" d="M200.6,-74.33C231.95,-62.59 275.76,-46.19 307.54,-34.29"/>
<polygon fill="#007f7f" stroke="#007f7f" points="308.85,-37.54 316.99,-30.76 306.4,-30.99 308.85,-37.54"/>
</g>
<!-- _sa11y_format&#45;&gt;axe_core -->
<g id="edge9" class="edge">
<title>_sa11y_format&#45;&gt;axe_core</title>
<path fill="none" stroke="#007f7f" d="M523.3,-75.42C485.4,-63.19 429.93,-45.3 391.67,-32.96"/>
<polygon fill="#007f7f" stroke="#007f7f" points="392.44,-29.53 381.85,-29.79 390.3,-36.19 392.44,-29.53"/>
</g>
<!-- _sa11y_preset_rules&#45;&gt;axe_core -->
<g id="edge14" class="edge">
<title>_sa11y_preset_rules&#45;&gt;axe_core</title>
<path fill="none" stroke="#007f7f" d="M348.4,-71.7C348.4,-63.98 348.4,-54.71 348.4,-46.11"/>
<polygon fill="#007f7f" stroke="#007f7f" points="351.9,-46.1 348.4,-36.1 344.9,-46.1 351.9,-46.1"/>
</g>
<!-- _sa11y_browser_lib -->
<g id="node6" class="node">
<title>_sa11y_browser_lib</title>
<ellipse fill="none" stroke="#007fff" cx="279.4" cy="-234" rx="89.8" ry="18"/>
<text text-anchor="middle" x="279.4" y="-229.8" font-family="Times,serif" font-size="14.00">@sa11y/browser&#45;lib</text>
</g>
<!-- _sa11y_browser_lib&#45;&gt;_sa11y_assert -->
<g id="edge5" class="edge">
<title>_sa11y_browser_lib&#45;&gt;_sa11y_assert</title>
<path fill="none" stroke="#000000" d="M279.4,-215.7C279.4,-207.98 279.4,-198.71 279.4,-190.11"/>
<polygon fill="#000000" stroke="#000000" points="282.9,-190.1 279.4,-180.1 275.9,-190.1 282.9,-190.1"/>
</g>
<!-- _sa11y_browser_lib&#45;&gt;_sa11y_format -->
<g id="edge6" class="edge">
<title>_sa11y_browser_lib&#45;&gt;_sa11y_format</title>
<path fill="none" stroke="#0000ff" d="M359.2,-225.75C425.66,-218.13 513.47,-203.86 539.4,-180 556.47,-164.29 562.56,-138.07 564.62,-118.14"/>
<polygon fill="#0000ff" stroke="#0000ff" points="568.12,-118.35 565.39,-108.11 561.14,-117.82 568.12,-118.35"/>
</g>
<!-- _sa11y_browser_lib&#45;&gt;_sa11y_preset_rules -->
<g id="edge7" class="edge">
<title>_sa11y_browser_lib&#45;&gt;_sa11y_preset_rules</title>
<path fill="none" stroke="#007f00" d="M243.42,-217.4C228.16,-208.76 211.96,-196.4 203.4,-180 196,-165.81 194.23,-157.11 203.4,-144 217.71,-123.54 240.81,-110.95 264.4,-103.21"/>
<polygon fill="#007f00" stroke="#007f00" points="265.59,-106.51 274.16,-100.28 263.58,-99.81 265.59,-106.51"/>
</g>
<!-- _sa11y_jest -->
<g id="node7" class="node">
<title>_sa11y_jest</title>
<ellipse fill="none" stroke="#00ff00" cx="555.4" cy="-234" rx="58.6" ry="18"/>
<text text-anchor="middle" x="555.4" y="-229.8" font-family="Times,serif" font-size="14.00">@sa11y/jest</text>
</g>
<!-- _sa11y_jest&#45;&gt;_sa11y_assert -->
<g id="edge10" class="edge">
<title>_sa11y_jest&#45;&gt;_sa11y_assert</title>
<path fill="none" stroke="#000000" d="M511.67,-221.91C464.26,-209.88 388.42,-190.65 336.38,-177.45"/>
<polygon fill="#000000" stroke="#000000" points="337.18,-174.04 326.63,-174.98 335.46,-180.83 337.18,-174.04"/>
</g>
<!-- _sa11y_jest&#45;&gt;_sa11y_format -->
<g id="edge11" class="edge">
<title>_sa11y_jest&#45;&gt;_sa11y_format</title>
<path fill="none" stroke="#0000ff" d="M598.52,-221.8C656.41,-206.72 752.19,-181.57 753.4,-180 788.69,-134.02 705.82,-110.71 639.09,-99.72"/>
<polygon fill="#0000ff" stroke="#0000ff" points="639.38,-96.22 628.96,-98.12 638.29,-103.14 639.38,-96.22"/>
</g>
<!-- _sa11y_jest&#45;&gt;_sa11y_preset_rules -->
<g id="edge12" class="edge">
<title>_sa11y_jest&#45;&gt;_sa11y_preset_rules</title>
<path fill="none" stroke="#007f00" d="M502.11,-226.26C467.75,-219.54 423.94,-206.22 393.4,-180 374.49,-163.77 362.62,-137.66 355.85,-117.91"/>
<polygon fill="#007f00" stroke="#007f00" points="359.14,-116.71 352.77,-108.25 352.48,-118.84 359.14,-116.71"/>
</g>
<!-- jest_matcher_utils -->
<g id="node8" class="node">
<title>jest_matcher_utils</title>
<ellipse fill="none" stroke="#00ff7f" cx="665.4" cy="-162" rx="78.72" ry="18"/>
<text text-anchor="middle" x="665.4" y="-157.8" font-family="Times,serif" font-size="14.00">jest&#45;matcher&#45;utils</text>
</g>
<!-- _sa11y_jest&#45;&gt;jest_matcher_utils -->
<g id="edge13" class="edge">
<title>_sa11y_jest&#45;&gt;jest_matcher_utils</title>
<path fill="none" stroke="#00ff7f" d="M579.81,-217.46C594.87,-207.88 614.42,-195.44 631.03,-184.87"/>
<polygon fill="#00ff7f" stroke="#00ff7f" points="633.35,-187.54 639.91,-179.22 629.59,-181.64 633.35,-187.54"/>
</g>
<!-- _sa11y_test_utils -->
<g id="node9" class="node">
<title>_sa11y_test_utils</title>
<ellipse fill="none" stroke="#7f0000" cx="78.4" cy="-162" rx="78.3" ry="18"/>
<text text-anchor="middle" x="78.4" y="-157.8" font-family="Times,serif" font-size="14.00">@sa11y/test&#45;utils</text>
</g>
<!-- _sa11y_test_utils&#45;&gt;_sa11y_common -->
<g id="edge15" class="edge">
<title>_sa11y_test_utils&#45;&gt;_sa11y_common</title>
<path fill="none" stroke="#00007f" d="M98.07,-144.41C108.82,-135.34 122.3,-123.97 134.06,-114.06"/>
<polygon fill="#00007f" stroke="#00007f" points="136.48,-116.59 141.87,-107.47 131.97,-111.24 136.48,-116.59"/>
</g>
<!-- _sa11y_wdio -->
<g id="node10" class="node">
<title>_sa11y_wdio</title>
<ellipse fill="none" stroke="#7f007f" cx="466.4" cy="-162" rx="64.41" ry="18"/>
<text text-anchor="middle" x="466.4" y="-157.8" font-family="Times,serif" font-size="14.00">@sa11y/wdio</text>
</g>
<!-- _sa11y_wdio&#45;&gt;_sa11y_common -->
<g id="edge16" class="edge">
<title>_sa11y_wdio&#45;&gt;_sa11y_common</title>
<path fill="none" stroke="#00007f" d="M418.07,-149.91C365.86,-137.93 282.44,-118.78 224.95,-105.59"/>
<polygon fill="#00007f" stroke="#00007f" points="225.42,-102.1 214.89,-103.28 223.85,-108.92 225.42,-102.1"/>
</g>
<!-- _sa11y_wdio&#45;&gt;_sa11y_format -->
<g id="edge17" class="edge">
<title>_sa11y_wdio&#45;&gt;_sa11y_format</title>
<path fill="none" stroke="#0000ff" d="M488.87,-145.12C502.31,-135.61 519.6,-123.38 534.34,-112.96"/>
<polygon fill="#0000ff" stroke="#0000ff" points="536.54,-115.69 542.68,-107.06 532.5,-109.98 536.54,-115.69"/>
</g>
<!-- _sa11y_wdio&#45;&gt;_sa11y_preset_rules -->
<g id="edge18" class="edge">
<title>_sa11y_wdio&#45;&gt;_sa11y_preset_rules</title>
<path fill="none" stroke="#007f00" d="M440.21,-145.46C423.91,-135.79 402.7,-123.21 384.78,-112.58"/>
<polygon fill="#007f00" stroke="#007f00" points="386.13,-109.31 375.75,-107.22 382.56,-115.33 386.13,-109.31"/>
</g>
<!-- _sa11y_wdio&#45;&gt;axe_core -->
<g id="edge19" class="edge">
<title>_sa11y_wdio&#45;&gt;axe_core</title>
<path fill="none" stroke="#007f7f" d="M466.86,-143.85C466.51,-124.54 463.26,-93.09 447.4,-72 433.81,-53.92 412.2,-41.35 392.64,-33"/>
<polygon fill="#007f7f" stroke="#007f7f" points="393.83,-29.7 383.24,-29.23 391.22,-36.2 393.83,-29.7"/>
</g>
<!-- _sa11y_test_integration -->
<g id="node11" class="node">
<title>_sa11y_test_integration</title>
<ellipse fill="none" stroke="#00ffff" cx="735.4" cy="-234" rx="103.7" ry="18"/>
<text text-anchor="middle" x="735.4" y="-229.8" font-family="Times,serif" font-size="14.00">@sa11y/test&#45;integration</text>
</g>
</g>
</svg>
